<svg width="72.000000" height="72.000000" viewBox="0 0 72 72" fill="none" xmlns="http://www.w3.org/2000/svg" xmlns:xlink="http://www.w3.org/1999/xlink">
	<desc>
			Created with Pixso.
	</desc>
	<defs/>
	<path id="Vector" d="M36 0C16.12 0 0 16.12 0 36C0 55.87 16.12 72 36 72C55.87 72 72 55.87 72 36C72 16.12 55.87 0 36 0ZM49.8 38.2L31.44 50.44C31.09 50.67 30.69 50.8 30.28 50.82C29.87 50.84 29.46 50.75 29.09 50.56C28.73 50.36 28.42 50.07 28.21 49.72C28 49.37 27.88 48.96 27.88 48.55L27.88 23.44C27.88 21.62 29.92 20.54 31.44 21.55L49.8 33.79C51.36 34.84 51.36 37.15 49.8 38.2Z" fill="#FF6174" fill-opacity="1.000000" fill-rule="nonzero"/>
</svg>
