<?xml version="1.0" encoding="utf-8"?><svg viewBox="0 0 72 72" xmlns="http://www.w3.org/2000/svg" xmlns:xlink="http://www.w3.org/1999/xlink"><style>:root>svg{display:none}:root>svg:target{display:block}</style><svg viewBox="0 0 10 18" id="next" xmlns="http://www.w3.org/2000/svg"><path d="M6.982 9L.366 2.195a1.312 1.312 0 010-1.818 1.226 1.226 0 011.768 0l7.5 7.714a1.312 1.312 0 010 1.818l-7.5 7.714a1.226 1.226 0 01-1.768 0 1.312 1.312 0 010-1.818L6.982 9z"/></svg><svg viewBox="0 0 21 21" id="phone" xmlns="http://www.w3.org/2000/svg"><defs><clipPath id="ba"><path transform="translate(-.667 -.667)" fill-opacity="0" d="M0 0h21.333v21.333H0z"/></clipPath></defs><path fill="none" d="M-.667-.667h21.333v21.333H-.667z"/><g clip-path="url(#ba)"><path d="M12.14 4.21a.756.756 0 00-.89.6c-.08.42.19.82.6.9 1.24.24 2.2 1.2 2.44 2.44.07.36.39.62.75.62.05 0 .1 0 .15-.01.41-.08.68-.48.6-.9a4.585 4.585 0 00-3.65-3.65z"/><path d="M12.09 1.11c-.2-.03-.4.03-.56.16-.16.13-.26.31-.28.52-.05.42.25.8.67.84 2.88.32 5.12 2.57 5.44 5.46.05.39.37.68.76.68.03 0 .06 0 .09-.01.2-.02.38-.12.51-.28.12-.16.18-.36.16-.56a7.66 7.66 0 00-6.79-6.81z"/><path d="M9.13 10.86c3.55 3.54 4.35-.56 6.61 1.7 2.18 2.18 3.43 2.61.67 5.37-.34.28-2.54 3.62-10.25-4.1-7.71-7.71-4.38-9.9-4.1-10.25 2.77-2.76 3.19-1.51 5.37.67 2.26 2.26-1.84 3.06 1.7 6.61z" fill-rule="evenodd"/></g></svg><svg viewBox="0 0 72 72" id="play" xmlns="http://www.w3.org/2000/svg"><path d="M36 0C16.12 0 0 16.12 0 36c0 19.87 16.12 36 36 36 19.87 0 36-16.13 36-36C72 16.12 55.87 0 36 0zm13.8 38.2L31.44 50.44a2.317 2.317 0 01-2.35.12c-.36-.2-.67-.49-.88-.84-.21-.35-.33-.76-.33-1.17V23.44c0-1.82 2.04-2.9 3.56-1.89L49.8 33.79c1.56 1.05 1.56 3.36 0 4.41z"/></svg><svg viewBox="0 0 12 12" id="plus" xmlns="http://www.w3.org/2000/svg"><path d="M4.691-.154h1.615v11.308H4.691z"/><path d="M-.154 4.692h11.308v1.615H-.154z"/></svg><svg viewBox="0 0 10 18" id="prev" xmlns="http://www.w3.org/2000/svg"><path d="M3.018 9l6.616-6.805a1.312 1.312 0 000-1.818 1.226 1.226 0 00-1.768 0L.366 8.09a1.312 1.312 0 000 1.818l7.5 7.714c.488.502 1.28.502 1.768 0a1.312 1.312 0 000-1.818L3.018 9z"/></svg></svg>