<svg width="24.000000" height="37.000000" viewBox="0 0 24 37" fill="none" xmlns="http://www.w3.org/2000/svg" xmlns:xlink="http://www.w3.org/1999/xlink">
	<desc>
			Created with Pixso.
	</desc>
	<defs/>
	<path id="Vector" d="M2.75 7.65L7.37 3.11L11.99 7.67L7.35 12.21L2.75 7.65Z" fill="#5DAA1A" fill-opacity="1.000000" fill-rule="nonzero"/>
	<path id="Vector" d="M15.16 0.04C15.73 1.28 15.73 1.28 15.73 1.28C13.07 2.53 12.38 7.76 12.36 9.67C12.33 21.37 12.33 21.37 12.33 21.37C10.97 21.39 10.97 21.39 10.97 21.39C11 9.61 11 9.61 11 9.61C10.98 9.29 11.16 1.92 15.16 0.04Z" fill="#5DAA1A" fill-opacity="1.000000" fill-rule="nonzero"/>
	<path id="Vector" d="M-0.04 13.39L23.09 13.45L23.03 36.22L-0.1 36.15L-0.04 13.39Z" fill="#E33226" fill-opacity="1.000000" fill-rule="evenodd"/>
	<path id="Vector" d="M11.67 15.74L20.58 15.76L20.56 24.79L11.67 15.74Z" fill="#FFFFFF" fill-opacity="1.000000" fill-rule="nonzero"/>
</svg>
