<svg width="172.000000" height="34.000000" viewBox="0 0 172 34" fill="none" xmlns="http://www.w3.org/2000/svg" xmlns:xlink="http://www.w3.org/1999/xlink">
	<desc>
			Created with Pixso.
	</desc>
	<defs>
		<clipPath id="clip195_9056">
			<rect id="logo.7ad9346a 1" width="172.000000" height="34.000000" fill="white" fill-opacity="0"/>
		</clipPath>
	</defs>
	<rect id="logo.7ad9346a 1" width="172.000000" height="34.000000" fill="#FFFFFF" fill-opacity="0"/>
	<g clip-path="url(#clip195_9056)">
		<path id="Vector" d="M0 11.65C0 7.57 0 5.53 0.78 3.97C1.48 2.6 2.59 1.49 3.95 0.79C5.5 0 7.53 0 11.59 0L22.22 0C26.27 0 28.3 0 29.85 0.79C31.22 1.49 32.32 2.6 33.02 3.97C33.81 5.53 33.81 7.57 33.81 11.65L33.81 22.34C33.81 26.42 33.81 28.46 33.02 30.02C32.33 31.39 31.22 32.5 29.85 33.2C28.3 34 26.27 34 22.22 34L11.59 34C7.53 34 5.5 34 3.95 33.2C2.59 32.5 1.48 31.39 0.78 30.02C0 28.46 0 26.42 0 22.34L0 11.65Z" fill="#FFB401" fill-opacity="1.000000" fill-rule="nonzero"/>
		<path id="Vector" d="M6.23 5.63C7.35 4.18 9.05 3.24 11.25 3.24C13.96 3.24 15.66 4.46 16.91 5.63C18.15 4.46 19.85 3.24 22.56 3.24C24.76 3.24 26.46 4.18 27.58 5.63C28.69 7.05 29.21 8.9 29.21 10.75C29.21 15.17 25.71 18.44 22.28 20.93L17.62 24.41C16.77 25.05 16.55 26.24 17.13 27.13C17.75 28.11 19.07 28.37 20.01 27.68L24.38 24.49L25.53 26.1L21.17 29.28C19.31 30.64 16.7 30.14 15.47 28.2C14.33 26.43 14.76 24.08 16.44 22.82L21.11 19.33L21.12 19.33C24.57 16.82 27.23 14.08 27.23 10.75C27.23 9.25 26.81 7.85 26.03 6.85C25.27 5.87 24.14 5.22 22.56 5.22C20.16 5.22 18.86 6.44 17.61 7.72C17.42 7.91 17.17 8.01 16.9 8.01C16.64 8.01 16.39 7.91 16.2 7.72C14.95 6.44 13.65 5.22 11.25 5.22C9.67 5.22 8.54 5.87 7.78 6.85C7 7.85 6.57 9.25 6.57 10.75C6.57 13.98 9.14 17.02 12.44 19.32C12.88 19.63 12.99 20.25 12.68 20.7C12.37 21.15 11.76 21.26 11.31 20.95C7.9 18.57 4.6 15.01 4.6 10.75C4.6 8.9 5.12 7.05 6.23 5.63Z" fill="#FFFFFF" fill-opacity="1.000000" fill-rule="nonzero"/>
		<path id="Vector" d="M13.25 9.56C13.25 9.48 13.31 9.42 13.39 9.42L15.08 9.42C15.16 9.42 15.22 9.48 15.22 9.56L15.22 12.22C15.22 12.3 15.29 12.36 15.37 12.36L18.44 12.36C18.52 12.36 18.59 12.3 18.59 12.22L18.59 9.56C18.59 9.48 18.65 9.42 18.73 9.42L20.42 9.42C20.5 9.42 20.56 9.48 20.56 9.56L20.56 17.14C20.56 17.22 20.5 17.28 20.42 17.28L18.73 17.28C18.65 17.28 18.59 17.22 18.59 17.14L18.59 14.48C18.59 14.41 18.52 14.34 18.44 14.34L15.37 14.34C15.29 14.34 15.22 14.41 15.22 14.48L15.22 17.14C15.22 17.22 15.16 17.28 15.08 17.28L13.39 17.28C13.31 17.28 13.25 17.22 13.25 17.14L13.25 9.56Z" fill="#FFFFFF" fill-opacity="1.000000" fill-rule="nonzero"/>
		<path id="Vector" d="M27.26 22.38C26.62 22.38 26.1 22.9 26.1 23.54C26.1 24.18 26.62 24.7 27.26 24.7C27.89 24.7 28.41 24.18 28.41 23.54C28.41 22.9 27.89 22.38 27.26 22.38ZM24.13 23.54C24.13 21.8 25.53 20.4 27.26 20.4C28.98 20.4 30.38 21.8 30.38 23.54C30.38 25.27 28.98 26.68 27.26 26.68C25.53 26.68 24.13 25.27 24.13 23.54Z" fill="#FFFFFF" fill-opacity="1.000000" fill-rule="nonzero"/>
		<path id="Vector" d="M42.44 23.26L42.44 8.87L44.05 8.87L44.05 15.26L52.31 15.26L52.31 8.87L53.93 8.87L53.93 23.26L52.31 23.26L52.31 16.78L44.05 16.78L44.05 23.26L42.44 23.26Z" fill="#121212" fill-opacity="1.000000" fill-rule="nonzero"/>
		<path id="Vector" d="M60.86 23.48C59.78 23.48 58.85 23.19 58.08 22.6C57.3 22.01 56.91 21.19 56.91 20.13C56.91 19.02 57.32 18.17 58.14 17.56C58.96 16.96 60.05 16.66 61.43 16.66C62.52 16.66 63.6 16.81 64.66 17.11L64.66 16.78C64.66 15.85 64.39 15.13 63.84 14.64C63.3 14.15 62.53 13.9 61.53 13.9C60.5 13.9 59.43 14.16 58.32 14.66L57.85 13.37C59.16 12.77 60.44 12.46 61.7 12.46C63.2 12.46 64.33 12.85 65.11 13.64C65.85 14.38 66.22 15.42 66.22 16.76L66.22 23.26L64.66 23.26L64.66 21.68C63.72 22.88 62.45 23.48 60.86 23.48ZM61.17 22.21C62.15 22.21 62.98 21.94 63.66 21.41C64.34 20.87 64.68 20.19 64.68 19.35L64.68 18.37C63.65 18.06 62.62 17.91 61.6 17.91C60.63 17.91 59.87 18.11 59.33 18.5C58.78 18.89 58.51 19.42 58.51 20.09C58.51 20.74 58.77 21.25 59.28 21.64C59.79 22.02 60.42 22.21 61.17 22.21Z" fill="#121212" fill-opacity="1.000000" fill-rule="nonzero"/>
		<path id="Vector" d="M69.51 23.26L69.51 8.87L81.45 8.87L81.45 23.26L78.3 23.26L78.3 11.72L72.66 11.72L72.66 23.26L69.51 23.26Z" fill="#121212" fill-opacity="1.000000" fill-rule="nonzero"/>
		<path id="Vector" d="M94.18 21.84C93.04 22.95 91.63 23.5 89.94 23.5C88.24 23.5 86.84 22.95 85.71 21.85C84.59 20.75 84.03 19.38 84.03 17.77C84.03 16.16 84.6 14.81 85.73 13.7C86.87 12.58 88.29 12.03 89.98 12.03C91.67 12.03 93.08 12.58 94.2 13.68C95.32 14.79 95.89 16.15 95.89 17.77C95.89 19.37 95.32 20.73 94.18 21.84ZM89.98 20.81C90.84 20.81 91.52 20.52 92.04 19.94C92.56 19.35 92.82 18.63 92.82 17.77C92.82 16.93 92.55 16.21 92.01 15.62C91.47 15.02 90.78 14.72 89.94 14.72C89.08 14.72 88.39 15.02 87.87 15.6C87.35 16.18 87.09 16.9 87.09 17.77C87.09 18.6 87.36 19.32 87.9 19.92C88.44 20.51 89.13 20.81 89.98 20.81Z" fill="#121212" fill-opacity="1.000000" fill-rule="nonzero"/>
		<path id="Vector" d="M108.09 12.24L108.09 23.26L104.99 23.26L104.99 14.91L101.24 14.91L101.24 23.26L98.14 23.26L98.14 12.24L108.09 12.24Z" fill="#121212" fill-opacity="1.000000" fill-rule="nonzero"/>
		<path id="Vector" d="M110.87 26.55L110.87 12.24L113.98 12.24L113.98 13.82C114.85 12.63 115.99 12.03 117.4 12.03C118.76 12.03 119.93 12.54 120.91 13.57C121.9 14.6 122.39 16 122.39 17.77C122.39 19.52 121.9 20.91 120.92 21.93C119.95 22.95 118.77 23.46 117.4 23.46C116.03 23.46 114.89 22.91 113.98 21.82L113.98 26.54L110.87 26.55ZM114.71 19.96C115.22 20.53 115.85 20.81 116.6 20.81C117.35 20.81 117.98 20.53 118.5 19.96C119.02 19.39 119.28 18.65 119.28 17.73C119.28 16.84 119.02 16.11 118.5 15.54C117.98 14.97 117.35 14.68 116.6 14.68C115.85 14.68 115.22 14.97 114.71 15.54C114.2 16.11 113.94 16.85 113.94 17.77C113.94 18.66 114.2 19.39 114.71 19.96Z" fill="#121212" fill-opacity="1.000000" fill-rule="nonzero"/>
		<path id="Vector" d="M127.79 23.46C126.71 23.46 125.81 23.16 125.1 22.56C124.38 21.96 124.02 21.12 124.02 20.05C124.02 18.89 124.42 18.01 125.22 17.42C126.01 16.83 127.09 16.54 128.44 16.54C129.35 16.54 130.25 16.69 131.12 16.99L131.12 16.8C131.12 15.46 130.33 14.79 128.77 14.79C127.82 14.79 126.82 14.99 125.74 15.38L124.96 13C126.3 12.41 127.72 12.11 129.22 12.11C130.87 12.11 132.1 12.53 132.92 13.35C133.71 14.14 134.1 15.31 134.1 16.86L134.1 23.26L131.1 23.26L131.1 22.07C130.27 23 129.16 23.46 127.79 23.46ZM128.72 21.3C129.45 21.3 130.03 21.12 130.48 20.76C130.93 20.4 131.16 19.93 131.16 19.37L131.16 18.82C130.57 18.54 129.91 18.41 129.17 18.41C128.49 18.41 127.96 18.54 127.59 18.81C127.21 19.07 127.03 19.46 127.03 19.97C127.03 20.38 127.18 20.7 127.5 20.94C127.81 21.19 128.22 21.3 128.72 21.3Z" fill="#121212" fill-opacity="1.000000" fill-rule="nonzero"/>
		<path id="Vector" d="M136.78 12.24L142.79 12.24C143.91 12.24 144.8 12.48 145.46 12.98C146.12 13.47 146.45 14.14 146.45 14.99C146.45 16.14 145.88 16.97 144.72 17.48C146.15 17.92 146.86 18.84 146.86 20.26C146.86 21.19 146.5 21.92 145.77 22.46C145.04 22.99 144.04 23.26 142.77 23.26L136.78 23.26L136.78 12.24ZM142.04 16.66C142.46 16.66 142.78 16.55 143.01 16.35C143.23 16.14 143.35 15.88 143.35 15.55C143.35 15.26 143.24 15.02 143.03 14.83C142.82 14.64 142.5 14.54 142.08 14.54L139.85 14.54L139.85 16.66L142.04 16.66ZM139.85 20.81L142.3 20.81C143.24 20.81 143.71 20.44 143.71 19.7C143.71 18.99 143.22 18.63 142.22 18.63L139.85 18.63L139.85 20.81Z" fill="#121212" fill-opacity="1.000000" fill-rule="nonzero"/>
		<path id="Vector" d="M149.05 23.26L149.05 12.24L152.16 12.24L152.16 16.76L156.09 12.24L159.66 12.24L155.64 16.76L160.17 23.26L156.49 23.26L153.57 19.06L152.16 20.61L152.16 23.26L149.05 23.26Z" fill="#121212" fill-opacity="1.000000" fill-rule="nonzero"/>
		<path id="Vector" d="M164.16 26.61C163.18 26.61 162.26 26.36 161.4 25.85L162.44 23.59C162.92 23.87 163.36 24.02 163.77 24.02C164.26 24.02 164.62 23.78 164.86 23.3L160.56 12.24L163.85 12.24L166.35 19.74L168.74 12.24L171.97 12.24L167.76 23.52C167.33 24.66 166.86 25.46 166.33 25.92C165.8 26.38 165.07 26.61 164.16 26.61Z" fill="#121212" fill-opacity="1.000000" fill-rule="nonzero"/>
	</g>
</svg>
