<svg width="226.000000" height="52.000000" viewBox="0 0 226 52" fill="none" xmlns="http://www.w3.org/2000/svg" xmlns:xlink="http://www.w3.org/1999/xlink">
	<desc>
			Created with Pixso.
	</desc>
	<defs/>
	<path id="Vector" d="M106.84 20.8L107.22 20.96L106.57 23.62C105.73 24.08 104.81 24.42 103.81 24.63C102.81 24.85 101.79 24.96 100.75 24.96C99.83 24.96 99.04 24.91 98.37 24.81C98.31 24.79 97.82 24.68 96.9 24.49C96.45 24.39 95.92 24.19 95.3 23.88C94.68 23.58 94.16 23.28 93.74 22.99C93.32 22.7 92.92 22.35 92.52 21.93C92.21 21.6 91.89 21.2 91.55 20.74C90.93 19.84 90.46 18.88 90.16 17.86C89.85 16.84 89.7 15.74 89.7 14.55C89.7 12.61 89.95 10.94 90.45 9.54C90.95 8.15 91.83 6.85 93.08 5.66C94.14 4.68 95.4 3.96 96.86 3.49C98.32 3.02 99.83 2.79 101.4 2.79C102.44 2.79 103.49 2.92 104.55 3.18C105.6 3.44 106.55 3.81 107.4 4.29C107.3 4.71 107.19 5.21 107.06 5.81C106.93 6.4 106.82 6.96 106.72 7.48L106.31 7.48C105.76 6.65 105.05 5.98 104.19 5.48C103.33 4.98 102.41 4.73 101.43 4.73C99.15 4.73 97.4 5.72 96.17 7.7C95.09 9.43 94.55 11.57 94.55 14.11C94.55 15.3 94.69 16.44 94.96 17.54C95.24 18.63 95.68 19.6 96.29 20.44C96.89 21.29 97.67 21.95 98.61 22.42C99.55 22.88 100.54 23.12 101.58 23.12C102.48 23.12 103.41 22.9 104.37 22.48C105.33 22.05 106.15 21.49 106.84 20.8Z" fill="#FFFFFF" fill-opacity="1.000000" fill-rule="nonzero"/>
	<path id="Vector" d="M112.54 11.36C111.61 11.36 110.96 11.37 110.58 11.41C110.21 11.44 109.5 11.54 108.45 11.69C108.55 11.38 108.6 11.02 108.6 10.6C108.6 10.29 108.55 9.94 108.45 9.57C108.65 9.57 109.84 9.62 112.03 9.73C112.91 9.77 113.78 9.79 114.64 9.79C115.4 9.79 116.46 9.76 117.81 9.68C119.16 9.6 120.1 9.57 120.62 9.57C120.53 9.94 120.48 10.28 120.48 10.59C120.48 10.96 120.53 11.32 120.62 11.67C119.98 11.59 119.32 11.51 118.65 11.45C117.99 11.39 117.3 11.36 116.6 11.36L116.6 13.58L116.6 19.67C116.6 20.76 116.6 21.63 116.61 22.27C116.63 22.92 116.67 23.69 116.74 24.56C116.42 24.56 115.97 24.54 115.4 24.48C114.84 24.43 114.49 24.4 114.38 24.4C114.09 24.4 113.7 24.43 113.21 24.48C112.72 24.54 112.43 24.56 112.33 24.56L112.42 22.49L112.54 19.48L112.54 14.71L112.54 11.36Z" fill="#FFFFFF" fill-opacity="1.000000" fill-rule="nonzero"/>
	<path id="Vector" d="M127.77 24.96C125.59 24.96 123.86 24.29 122.57 22.93C121.27 21.58 120.62 19.75 120.62 17.44C120.62 16.25 120.78 15.17 121.08 14.19C121.38 13.22 121.89 12.32 122.59 11.51C123.18 10.82 123.97 10.27 124.95 9.84C125.92 9.41 126.88 9.2 127.8 9.2C128.8 9.2 129.78 9.37 130.76 9.71C131.75 10.06 132.54 10.58 133.15 11.27C133.75 11.97 134.22 12.81 134.54 13.77C134.87 14.74 135.03 15.73 135.03 16.75C135.03 19.19 134.4 21.15 133.15 22.62C131.81 24.18 130.02 24.96 127.77 24.96ZM127.97 10.54C127.07 10.54 126.37 11.06 125.86 12.1C125.46 12.89 125.22 13.85 125.12 14.97C125.12 15.25 125.1 15.64 125.06 16.16C125.02 16.68 125 17.08 125 17.35C125 18.95 125.14 20.24 125.41 21.21C125.87 22.8 126.65 23.59 127.77 23.59C128.51 23.59 129.1 23.25 129.53 22.59C129.82 22.13 130.08 21.42 130.29 20.47C130.39 20.05 130.48 19.38 130.56 18.45C130.64 17.53 130.68 16.79 130.68 16.25C130.68 16 130.66 15.72 130.63 15.41C130.6 15.1 130.58 14.86 130.56 14.69C130.56 13.69 130.37 12.81 130 12.04C129.53 11.04 128.86 10.54 127.97 10.54Z" fill="#FFFFFF" fill-opacity="1.000000" fill-rule="nonzero"/>
	<path id="Vector" d="M149.52 24.56C149.18 24.56 148.91 24.55 148.7 24.53C147.83 24.44 147.35 24.4 147.26 24.4C146.92 24.4 146.49 24.43 145.95 24.48C145.41 24.54 145.1 24.56 145.02 24.56C144.57 22.94 143.91 20.87 143.02 18.37C142.63 17.28 142.18 16.04 141.67 14.64C140.99 16.21 140.36 17.76 139.79 19.31C139.16 21.02 138.59 22.77 138.08 24.56L136.88 24.46L135.73 24.56C136.79 22.1 137.85 19.56 138.91 16.97C140.1 14.04 141.07 11.53 141.82 9.44C142.03 9.49 142.22 9.54 142.38 9.58C142.53 9.62 142.68 9.64 142.82 9.64C142.93 9.64 143.1 9.61 143.31 9.56C143.53 9.51 143.7 9.47 143.81 9.44C144.66 11.83 145.58 14.35 146.58 17C147.46 19.32 148.44 21.85 149.52 24.56Z" fill="#FFFFFF" fill-opacity="1.000000" fill-rule="nonzero"/>
	<path id="Vector" d="M151.16 24.61L151.25 22.54L151.37 19.53L151.46 14.75C151.46 14.19 151.43 13.33 151.37 12.18C151.31 11.03 151.28 10.16 151.28 9.57L151.55 9.61L153.66 9.7C153.88 9.7 154.22 9.68 154.69 9.64C155.16 9.59 155.52 9.57 155.75 9.57L155.52 13.61C155.52 14.3 155.49 15.31 155.45 16.65C155.42 18 155.4 18.69 155.4 18.73C156.63 17.29 157.79 15.86 158.87 14.42C159.95 12.98 161.1 11.37 162.32 9.57C162.58 9.57 162.83 9.58 163.09 9.59C163.34 9.6 163.6 9.61 163.86 9.61L164.33 9.61C164.47 9.59 164.58 9.57 164.66 9.57L164.45 13.61C164.45 14.3 164.43 15.46 164.39 17.08C164.35 18.71 164.33 19.58 164.33 19.71C164.33 20.8 164.34 21.67 164.37 22.32C164.38 22.97 164.45 23.73 164.57 24.61C164.24 24.61 163.78 24.58 163.2 24.51C162.62 24.44 162.28 24.4 162.16 24.4C161.86 24.4 161.47 24.44 160.97 24.51C160.47 24.58 160.17 24.61 160.07 24.61L160.16 22.53L160.28 19.51L160.28 15.27C159.01 16.7 157.8 18.2 156.66 19.75C155.51 21.3 154.4 22.92 153.33 24.61C153.07 24.61 152.71 24.61 152.23 24.61C151.75 24.61 151.4 24.61 151.16 24.61Z" fill="#FFFFFF" fill-opacity="1.000000" fill-rule="nonzero"/>
	<path id="Vector" d="M167.15 14.66C167.15 14.07 167.13 13.11 167.09 11.76C167.05 10.41 167.04 9.68 167.04 9.58L167.3 9.61L169.42 9.7C169.63 9.7 169.98 9.68 170.45 9.64C170.92 9.6 171.27 9.58 171.5 9.58C171.39 10.53 171.32 11.25 171.28 11.74C171.23 12.23 171.21 12.82 171.21 13.53L171.21 14.62C171.21 15.33 171.39 15.85 171.76 16.18C172.12 16.51 172.6 16.68 173.19 16.68C173.57 16.68 173.98 16.6 174.42 16.46C174.86 16.31 175.26 16.13 175.59 15.9C175.59 15.86 175.59 15.76 175.59 15.6C175.59 15.45 175.59 15.15 175.59 14.71C175.59 14.13 175.57 13.16 175.53 11.79C175.49 10.42 175.47 9.68 175.47 9.58L175.74 9.61L177.87 9.7C178.09 9.7 178.43 9.68 178.91 9.64C179.38 9.6 179.73 9.58 179.97 9.58L179.76 13.61C179.76 14.3 179.75 15.45 179.71 17.07C179.67 18.69 179.65 19.56 179.65 19.68C179.65 20.77 179.66 21.63 179.68 22.28C179.7 22.93 179.76 23.69 179.88 24.57C179.55 24.57 179.09 24.54 178.52 24.48C177.94 24.43 177.59 24.4 177.47 24.4C177.18 24.4 176.78 24.43 176.28 24.48C175.78 24.54 175.48 24.57 175.39 24.57L175.47 22.49L175.59 19.46L175.59 17.49C174.94 17.95 174.24 18.3 173.5 18.54C172.75 18.78 172.03 18.9 171.34 18.9C170.14 18.9 169.16 18.57 168.39 17.93C167.57 17.22 167.16 16.28 167.16 15.09L167.16 14.66L167.15 14.66Z" fill="#FFFFFF" fill-opacity="1.000000" fill-rule="nonzero"/>
	<path id="Vector" d="M187.02 15.8L189.36 15.89L191.79 15.8L191.79 14.74C191.79 14.17 191.77 13.32 191.73 12.17C191.69 11.02 191.67 10.16 191.67 9.58L191.94 9.61L194.06 9.7C194.28 9.7 194.63 9.68 195.1 9.64C195.57 9.6 195.93 9.58 196.16 9.58L195.96 13.61C195.96 14.3 195.94 15.45 195.9 17.07C195.86 18.69 195.84 19.56 195.84 19.68C195.84 20.77 195.85 21.63 195.87 22.28C195.89 22.93 195.96 23.69 196.08 24.56C195.74 24.56 195.29 24.54 194.71 24.48C194.13 24.43 193.78 24.4 193.67 24.4C193.38 24.4 192.98 24.43 192.48 24.48C191.98 24.54 191.68 24.56 191.58 24.56L191.67 22.5L191.79 19.49L191.79 17.71L189.42 17.61L187.02 17.71L187.02 19.68C187.02 20.77 187.04 21.63 187.05 22.28C187.07 22.93 187.14 23.69 187.26 24.56C186.93 24.56 186.47 24.54 185.89 24.48C185.32 24.43 184.97 24.4 184.85 24.4C184.56 24.4 184.16 24.43 183.66 24.48C183.16 24.54 182.86 24.56 182.76 24.56L182.85 22.5L182.97 19.5L183.06 14.74C183.06 14.18 183.02 13.32 182.95 12.17C182.89 11.03 182.85 10.16 182.85 9.58L183.12 9.61L185.25 9.7C185.46 9.7 185.81 9.68 186.28 9.64C186.76 9.6 187.11 9.58 187.35 9.58L187.11 13.61L187.02 15.8Z" fill="#FFFFFF" fill-opacity="1.000000" fill-rule="nonzero"/>
	<path id="Vector" d="M200.22 13.26L200.02 13.26L199.63 11.39C200.32 10.72 201.15 10.2 202.12 9.84C203.09 9.48 204.07 9.29 205.07 9.29C206.52 9.29 207.72 9.59 208.67 10.2C209.86 10.95 210.45 12.04 210.45 13.48L210.45 15.58L210.36 20.15L210.45 21.93C210.45 22.16 210.52 22.41 210.65 22.7C210.78 22.98 210.94 23.16 211.13 23.24C211.21 23.26 211.3 23.28 211.42 23.3C211.53 23.33 211.63 23.34 211.73 23.34C211.82 23.34 211.93 23.34 212.04 23.34C212.08 23.36 212.1 23.51 212.1 23.79L212.1 24.12C211.9 24.25 211.66 24.37 211.36 24.49C211.07 24.61 210.84 24.7 210.69 24.77C210.49 24.81 210.28 24.86 210.05 24.9C209.83 24.94 209.63 24.96 209.45 24.96C208.77 24.96 208.17 24.76 207.66 24.35C207.15 23.95 206.78 23.39 206.54 22.68C206.17 23.38 205.65 23.93 204.97 24.35C204.29 24.76 203.56 24.96 202.78 24.96C201.52 24.96 200.51 24.61 199.74 23.9C198.96 23.19 198.58 22.17 198.58 20.86C198.58 20.15 198.73 19.48 199.04 18.87C199.34 18.25 199.77 17.77 200.32 17.42C200.87 17.08 201.48 16.8 202.13 16.59C202.21 16.57 202.83 16.4 204 16.09C204.45 15.97 204.82 15.86 205.09 15.78C205.52 15.63 205.88 15.46 206.16 15.28C206.32 15.13 206.42 14.97 206.47 14.79C206.52 14.61 206.54 14.38 206.54 14.08C206.54 13.37 206.26 12.76 205.7 12.25C205.15 11.74 204.51 11.48 203.81 11.48C203.22 11.48 202.65 11.6 202.1 11.84C201.55 12.08 201.04 12.43 200.55 12.89L200.22 13.26ZM203.63 17.87C203.28 18.18 203.03 18.54 202.9 18.95C202.76 19.36 202.69 19.86 202.69 20.45C202.69 21.14 202.81 21.71 203.06 22.16C203.31 22.61 203.73 22.84 204.33 22.84C205.17 22.84 205.77 22.49 206.12 21.8C206.4 21.25 206.54 20.5 206.54 19.54C206.54 19.2 206.54 18.7 206.54 18.03C206.54 17.36 206.54 16.85 206.54 16.52L205.36 17.05C204.97 17.22 204.68 17.34 204.49 17.4C204.11 17.55 203.83 17.7 203.63 17.87Z" fill="#FFFFFF" fill-opacity="1.000000" fill-rule="nonzero"/>
	<path id="Vector" d="M222.3 9.67L222.77 9.67L223.21 9.67L223.56 9.67C224.5 9.67 225.17 9.64 225.56 9.58L225.35 13.61C225.35 14.3 225.33 15.45 225.3 17.07C225.26 18.69 225.24 19.56 225.24 19.68C225.24 20.5 225.24 21.31 225.25 22.12C225.25 22.94 225.29 23.75 225.35 24.56C225.03 24.56 224.59 24.54 224.03 24.48C223.49 24.43 223.15 24.4 223.03 24.4C222.73 24.4 222.33 24.43 221.84 24.48C221.36 24.54 221.08 24.56 221 24.56L221.16 22.5L221.33 19.49L221.33 18.33L220.86 18.33C220.27 19.02 219.74 19.75 219.25 20.52C218.88 21.13 218.18 22.48 217.15 24.56C216.62 24.52 216.15 24.48 215.76 24.45C215.36 24.42 215.11 24.4 214.99 24.4C214.6 24.4 214.1 24.43 213.5 24.48C212.9 24.54 212.57 24.56 212.51 24.56L212.51 24.35C213.27 23.13 213.97 22.05 214.59 21.09C215.44 19.82 216.22 18.69 216.95 17.71C216.02 17.42 215.29 17 214.74 16.46C213.98 15.71 213.59 14.79 213.59 13.7C213.59 12.29 214.09 11.24 215.1 10.58C216.09 9.91 217.45 9.58 219.15 9.58L222.3 9.67ZM221.33 12.65L221.21 11.23L220.59 11.23C219.73 11.23 219.02 11.46 218.48 11.91C217.93 12.36 217.65 12.99 217.65 13.81C217.65 14.71 217.96 15.44 218.56 15.98C219.11 16.47 219.79 16.71 220.59 16.71L221.33 16.71C221.33 16.12 221.33 15.43 221.33 14.63C221.33 13.83 221.33 13.17 221.33 12.65Z" fill="#FFFFFF" fill-opacity="1.000000" fill-rule="nonzero"/>
	<path id="Vector" d="M101.59 49.2L101.35 49.2C100.93 48.7 100.3 48.37 99.46 48.22C98.62 48.06 97.59 47.98 96.36 47.98L95.48 47.98C93.79 47.98 92.66 48.02 92.09 48.09C90.93 48.24 90.1 48.61 89.6 49.2L89.37 49.2C89.46 48.79 89.5 48.3 89.5 47.74C89.5 47.33 89.46 46.94 89.37 46.58L90.3 46.58C91.94 42.76 93.45 38.92 94.81 35.06L95.66 35.17L96.51 35.06C97.77 38.81 99.18 42.65 100.72 46.58L101.59 46.58C101.51 46.94 101.47 47.33 101.47 47.74C101.47 47.96 101.48 48.19 101.49 48.44C101.51 48.7 101.55 48.95 101.59 49.2ZM97.01 46.47C96.66 45.22 96.31 44.07 95.96 43.04C95.83 42.68 95.4 41.51 94.69 39.53C94.2 40.73 93.76 41.88 93.37 42.98C92.92 44.2 92.52 45.36 92.17 46.47C92.47 46.47 93.01 46.48 93.79 46.52C94.57 46.56 95.02 46.57 95.14 46.57C95.38 46.57 95.66 46.57 95.97 46.56C96.28 46.55 96.62 46.52 97.01 46.47Z" fill="#FFFFFF" fill-opacity="1.000000" fill-rule="nonzero"/>
	<path id="Vector" d="M102.99 48.19L103.07 46.4L103.17 43.79L103.24 39.66C103.24 39.17 103.22 38.42 103.17 37.43C103.12 36.43 103.09 35.68 103.09 35.17L103.32 35.2L105.11 35.28C105.3 35.28 105.59 35.26 105.99 35.22C106.38 35.19 106.69 35.17 106.88 35.17L106.69 38.66C106.69 39.26 106.67 40.14 106.63 41.3C106.6 42.46 106.58 43.06 106.58 43.1C107.63 41.85 108.62 40.61 109.53 39.37C110.45 38.12 111.42 36.72 112.46 35.17C112.67 35.17 112.89 35.17 113.11 35.18C113.33 35.19 113.54 35.2 113.76 35.2L114.16 35.2C114.28 35.18 114.37 35.17 114.44 35.17L114.27 38.66C114.27 39.26 114.25 40.27 114.21 41.67C114.18 43.08 114.17 43.84 114.17 43.95C114.17 44.89 114.17 45.64 114.19 46.21C114.21 46.77 114.27 47.43 114.36 48.19C114.08 48.19 113.69 48.16 113.21 48.1C112.72 48.04 112.42 48.01 112.32 48.01C112.07 48.01 111.74 48.04 111.31 48.1C110.89 48.16 110.63 48.19 110.55 48.19L110.63 46.39L110.72 43.78L110.72 40.1C109.65 41.35 108.62 42.64 107.65 43.99C106.68 45.33 105.74 46.73 104.83 48.19C104.61 48.19 104.3 48.19 103.9 48.19C103.49 48.19 103.19 48.19 102.99 48.19Z" fill="#FFFFFF" fill-opacity="1.000000" fill-rule="nonzero"/>
	<path id="Vector" d="M117.81 38.37L117.63 38.37L117.31 36.74C117.89 36.16 118.59 35.72 119.41 35.4C120.24 35.08 121.07 34.92 121.92 34.92C123.15 34.92 124.17 35.19 124.97 35.71C125.98 36.36 126.48 37.31 126.48 38.55L126.48 40.37L126.41 44.33L126.48 45.87C126.48 46.07 126.54 46.29 126.65 46.53C126.76 46.78 126.9 46.94 127.06 47.01C127.12 47.03 127.2 47.04 127.3 47.06C127.4 47.08 127.49 47.09 127.57 47.09C127.65 47.09 127.73 47.09 127.83 47.09C127.86 47.11 127.88 47.24 127.88 47.48L127.88 47.76C127.71 47.88 127.5 47.99 127.25 48.09C127 48.19 126.81 48.27 126.68 48.33C126.51 48.36 126.34 48.4 126.15 48.44C125.95 48.48 125.78 48.5 125.64 48.5C125.05 48.5 124.55 48.32 124.11 47.97C123.68 47.61 123.37 47.13 123.17 46.52C122.85 47.12 122.4 47.6 121.83 47.96C121.26 48.32 120.64 48.5 119.98 48.5C118.91 48.5 118.05 48.19 117.39 47.57C116.74 46.96 116.41 46.08 116.41 44.94C116.41 44.32 116.54 43.75 116.8 43.22C117.06 42.68 117.42 42.27 117.89 41.97C118.36 41.67 118.87 41.43 119.42 41.25C119.49 41.23 120.02 41.08 121.01 40.81C121.39 40.7 121.7 40.61 121.94 40.54C122.3 40.41 122.61 40.27 122.84 40.11C122.97 39.98 123.06 39.84 123.1 39.68C123.15 39.53 123.17 39.33 123.17 39.07C123.17 38.46 122.93 37.93 122.46 37.49C121.98 37.04 121.45 36.82 120.85 36.82C120.35 36.82 119.87 36.92 119.4 37.13C118.94 37.34 118.49 37.64 118.08 38.04L117.81 38.37ZM120.7 42.35C120.4 42.62 120.19 42.94 120.07 43.29C119.96 43.65 119.9 44.08 119.9 44.59C119.9 45.18 120 45.68 120.22 46.07C120.43 46.46 120.79 46.65 121.29 46.65C122 46.65 122.51 46.35 122.81 45.75C123.05 45.28 123.17 44.63 123.17 43.79C123.17 43.5 123.17 43.07 123.17 42.49C123.17 41.91 123.17 41.47 123.17 41.18L122.17 41.64C121.84 41.79 121.59 41.89 121.42 41.94C121.11 42.07 120.86 42.21 120.7 42.35Z" fill="#FFFFFF" fill-opacity="1.000000" fill-rule="nonzero"/>
	<path id="Vector" d="M137.13 35.16C137.05 35.49 137.01 35.79 137.01 36.06C137.01 36.39 137.05 36.7 137.13 37.01C136.54 36.94 135.97 36.88 135.42 36.82C134.88 36.77 134.3 36.74 133.69 36.74L133.02 36.74L132.97 38.67L132.97 43.92C132.97 44.86 132.97 45.61 132.99 46.17C133.01 46.73 133.07 47.39 133.16 48.15C132.88 48.15 132.49 48.13 132 48.08C131.5 48.03 131.21 48.01 131.11 48.01C130.86 48.01 130.52 48.03 130.09 48.08C129.67 48.13 129.41 48.15 129.33 48.15L129.42 46.36L129.52 43.76L129.52 39.64C129.52 39.16 129.51 38.41 129.48 37.42C129.44 36.42 129.42 35.68 129.42 35.17C129.97 35.21 130.56 35.24 131.21 35.28C131.85 35.31 132.47 35.33 133.07 35.33L133.59 35.33C134.83 35.33 136.01 35.27 137.13 35.16Z" fill="#FFFFFF" fill-opacity="1.000000" fill-rule="nonzero"/>
	<path id="Vector" d="M142.17 40.56L144.15 40.64L146.21 40.56L146.21 39.64C146.21 39.15 146.19 38.41 146.16 37.42C146.13 36.42 146.11 35.67 146.11 35.17L146.33 35.2L148.14 35.28C148.33 35.28 148.62 35.26 149.02 35.22C149.42 35.19 149.72 35.17 149.92 35.17L149.75 38.67C149.75 39.26 149.73 40.26 149.7 41.66C149.67 43.06 149.65 43.82 149.65 43.92C149.65 44.86 149.66 45.61 149.67 46.17C149.69 46.73 149.75 47.39 149.85 48.15C149.57 48.15 149.18 48.13 148.69 48.08C148.2 48.03 147.9 48.01 147.81 48.01C147.56 48.01 147.22 48.03 146.8 48.08C146.37 48.13 146.12 48.15 146.03 48.15L146.11 46.36L146.21 43.76L146.21 42.21L144.2 42.13L142.17 42.21L142.17 43.92C142.17 44.86 142.18 45.61 142.19 46.17C142.21 46.73 142.27 47.39 142.37 48.15C142.09 48.15 141.7 48.13 141.21 48.08C140.72 48.03 140.42 48.01 140.32 48.01C140.07 48.01 139.74 48.03 139.31 48.08C138.89 48.13 138.64 48.15 138.55 48.15L138.63 46.36L138.73 43.76L138.8 39.64C138.8 39.16 138.77 38.41 138.72 37.42C138.66 36.43 138.63 35.68 138.63 35.17L138.85 35.2L140.66 35.28C140.84 35.28 141.14 35.26 141.54 35.22C141.94 35.19 142.24 35.17 142.45 35.17L142.25 38.66L142.17 40.56Z" fill="#FFFFFF" fill-opacity="1.000000" fill-rule="nonzero"/>
	<path id="Vector" d="M157.98 48.5C156.13 48.5 154.66 47.91 153.57 46.74C152.47 45.57 151.92 43.98 151.92 41.98C151.92 40.96 152.05 40.02 152.31 39.17C152.56 38.33 152.99 37.55 153.59 36.85C154.09 36.25 154.75 35.77 155.59 35.4C156.42 35.03 157.22 34.85 158 34.85C158.85 34.85 159.69 34.99 160.52 35.29C161.36 35.59 162.03 36.04 162.54 36.64C163.06 37.25 163.45 37.97 163.73 38.81C164 39.64 164.14 40.51 164.14 41.39C164.14 43.5 163.61 45.19 162.54 46.47C161.41 47.82 159.89 48.5 157.98 48.5ZM158.15 36.01C157.39 36.01 156.79 36.46 156.36 37.36C156.02 38.05 155.82 38.87 155.74 39.85C155.74 40.08 155.72 40.42 155.68 40.88C155.65 41.32 155.63 41.67 155.63 41.9C155.63 43.29 155.75 44.41 155.98 45.25C156.37 46.62 157.03 47.31 157.98 47.31C158.61 47.31 159.11 47.02 159.47 46.44C159.72 46.05 159.94 45.43 160.12 44.6C160.21 44.24 160.28 43.66 160.35 42.86C160.41 42.06 160.45 41.42 160.45 40.96C160.45 40.74 160.43 40.5 160.41 40.23C160.38 39.96 160.36 39.75 160.35 39.6C160.35 38.74 160.19 37.97 159.88 37.31C159.48 36.44 158.9 36.01 158.15 36.01Z" fill="#FFFFFF" fill-opacity="1.000000" fill-rule="nonzero"/>
	<path id="Vector" d="M176.66 36.14L175.71 38.91L175.11 38.91C175.01 38.12 174.74 37.48 174.31 36.98C173.88 36.48 173.3 36.23 172.57 36.23C171.52 36.23 170.73 36.84 170.2 38.06C169.78 39.02 169.58 40.14 169.58 41.41C169.58 42.26 169.63 42.97 169.73 43.55C169.82 44.13 170.05 44.68 170.39 45.21C170.73 45.74 171.14 46.13 171.62 46.36C172.1 46.59 172.66 46.71 173.29 46.71C173.76 46.71 174.23 46.59 174.71 46.36C175.19 46.12 175.59 45.82 175.89 45.44L176.31 45.82L175.71 47.42C175.41 47.7 174.91 47.95 174.19 48.15C173.47 48.34 172.86 48.44 172.35 48.44C171.41 48.44 170.57 48.33 169.83 48.09C168.91 47.81 168.17 47.35 167.6 46.74C166.41 45.42 165.81 43.8 165.81 41.89C165.81 39.74 166.41 38.03 167.6 36.77C168.8 35.5 170.39 34.87 172.37 34.87C173.12 34.87 173.87 34.98 174.64 35.19C175.4 35.4 176.08 35.72 176.66 36.14Z" fill="#FFFFFF" fill-opacity="1.000000" fill-rule="nonzero"/>
	<path id="Vector" d="M180.6 36.71C179.81 36.71 179.26 36.73 178.94 36.76C178.62 36.79 178.02 36.87 177.13 37C177.21 36.73 177.25 36.42 177.25 36.06C177.25 35.79 177.21 35.49 177.13 35.16C177.29 35.16 178.31 35.21 180.17 35.3C180.91 35.34 181.65 35.36 182.38 35.36C183.03 35.36 183.92 35.33 185.07 35.26C186.21 35.2 187.01 35.16 187.46 35.16C187.37 35.48 187.33 35.78 187.33 36.04C187.33 36.37 187.37 36.68 187.46 36.98C186.91 36.91 186.35 36.85 185.78 36.79C185.22 36.74 184.64 36.71 184.04 36.71L184.04 38.64L184.04 43.91C184.04 44.86 184.04 45.61 184.06 46.17C184.06 46.73 184.1 47.39 184.17 48.15C183.89 48.15 183.51 48.13 183.03 48.08C182.55 48.03 182.26 48.01 182.16 48.01C181.91 48.01 181.59 48.03 181.17 48.08C180.75 48.13 180.51 48.15 180.42 48.15L180.5 46.36L180.6 43.75L180.6 39.62L180.6 36.71L180.6 36.71Z" fill="#FFFFFF" fill-opacity="1.000000" fill-rule="nonzero"/>
	<path id="Vector" d="M188.88 48.19L188.95 46.4L189.05 43.79L189.13 39.66C189.13 39.17 189.1 38.42 189.05 37.43C189 36.43 188.98 35.68 188.98 35.17L189.2 35.2L191 35.28C191.18 35.28 191.47 35.26 191.87 35.22C192.27 35.19 192.57 35.17 192.77 35.17L192.57 38.66C192.57 39.26 192.55 40.14 192.52 41.3C192.48 42.46 192.47 43.06 192.47 43.1C193.52 41.85 194.5 40.61 195.42 39.37C196.33 38.12 197.31 36.72 198.34 35.17C198.56 35.17 198.77 35.17 198.99 35.18C199.21 35.19 199.43 35.2 199.64 35.2L200.05 35.2C200.16 35.18 200.26 35.17 200.32 35.17L200.15 38.66C200.15 39.26 200.13 40.27 200.1 41.67C200.06 43.08 200.05 43.84 200.05 43.95C200.05 44.89 200.05 45.64 200.07 46.21C200.09 46.77 200.15 47.43 200.24 48.19C199.96 48.19 199.58 48.16 199.09 48.1C198.6 48.04 198.3 48.01 198.2 48.01C197.95 48.01 197.61 48.04 197.19 48.1C196.77 48.16 196.51 48.19 196.43 48.19L196.51 46.39L196.61 43.78L196.61 40.1C195.53 41.35 194.5 42.64 193.53 43.99C192.56 45.33 191.62 46.73 190.71 48.19C190.49 48.19 190.18 48.19 189.78 48.19C189.37 48.19 189.07 48.19 188.88 48.19Z" fill="#FFFFFF" fill-opacity="1.000000" fill-rule="nonzero"/>
	<path id="Vector" d="M209.35 40.1L211.34 43.57L213.79 47.93L213.79 48.15C213.52 48.15 213.16 48.12 212.7 48.08C212.24 48.03 211.97 48.01 211.89 48.01C211.59 48.01 211.21 48.03 210.74 48.08C210.27 48.12 210 48.15 209.94 48.15L209.26 46.83L208.41 45.21L207.06 42.89C206.89 42.6 206.8 42.45 206.78 42.43C206.65 42.25 206.5 42.15 206.33 42.13L206.26 42.83L206.26 44.23L206.26 45.91C206.26 46.18 206.28 46.58 206.32 47.12C206.36 47.66 206.38 48 206.38 48.15C206.14 48.15 205.8 48.12 205.37 48.08C204.94 48.03 204.68 48.01 204.6 48.01C204.35 48.01 204.01 48.03 203.58 48.08C203.15 48.12 202.9 48.15 202.82 48.15L202.82 47.47C202.82 46.98 202.84 46.23 202.9 45.22C202.96 44.21 202.99 43.52 202.99 43.16L202.99 38.26L202.82 35.14C203.11 35.2 203.5 35.23 203.97 35.25C204.45 35.27 204.72 35.28 204.78 35.28C205.15 35.28 205.43 35.27 205.62 35.25C205.81 35.23 206.12 35.2 206.56 35.14C206.5 35.76 206.43 36.5 206.36 37.36C206.29 38.22 206.26 38.98 206.26 39.63C206.26 39.83 206.26 40.02 206.26 40.2C206.26 40.39 206.28 40.64 206.33 40.97C206.38 41.02 206.46 41.03 206.56 40.99C207.33 40.14 208.12 39.2 208.94 38.16C209.66 37.26 210.41 36.27 211.18 35.2L212.38 35.25L213.51 35.2L213.51 35.41C213.06 36.01 212.38 36.79 211.44 37.77C210.45 38.82 209.75 39.6 209.35 40.1Z" fill="#FFFFFF" fill-opacity="1.000000" fill-rule="nonzero"/>
	<path id="Vector" d="M215.71 38.37L215.54 38.37L215.21 36.74C215.79 36.16 216.5 35.72 217.32 35.4C218.14 35.08 218.98 34.92 219.82 34.92C221.05 34.92 222.07 35.19 222.88 35.71C223.89 36.36 224.39 37.31 224.39 38.55L224.39 40.37L224.31 44.33L224.39 45.87C224.39 46.07 224.44 46.29 224.56 46.53C224.67 46.78 224.8 46.94 224.97 47.01C225.03 47.03 225.11 47.04 225.21 47.06C225.3 47.08 225.39 47.09 225.47 47.09C225.55 47.09 225.64 47.09 225.74 47.09C225.77 47.11 225.78 47.24 225.78 47.48L225.78 47.76C225.62 47.88 225.41 47.99 225.16 48.09C224.91 48.19 224.72 48.27 224.59 48.33C224.42 48.36 224.24 48.4 224.05 48.44C223.86 48.48 223.69 48.5 223.54 48.5C222.96 48.5 222.45 48.32 222.02 47.97C221.59 47.61 221.27 47.13 221.07 46.52C220.75 47.12 220.31 47.6 219.74 47.96C219.16 48.32 218.54 48.5 217.88 48.5C216.82 48.5 215.95 48.19 215.3 47.57C214.64 46.96 214.31 46.08 214.31 44.94C214.31 44.32 214.44 43.75 214.7 43.22C214.96 42.68 215.33 42.27 215.79 41.97C216.26 41.67 216.78 41.43 217.33 41.25C217.39 41.23 217.92 41.08 218.91 40.81C219.3 40.7 219.6 40.61 219.84 40.54C220.21 40.41 220.51 40.27 220.74 40.11C220.88 39.98 220.97 39.84 221.01 39.68C221.05 39.53 221.07 39.33 221.07 39.07C221.07 38.46 220.83 37.93 220.36 37.49C219.89 37.04 219.35 36.82 218.75 36.82C218.25 36.82 217.77 36.92 217.31 37.13C216.84 37.34 216.4 37.64 215.98 38.04L215.71 38.37ZM218.6 42.35C218.3 42.62 218.1 42.94 217.98 43.29C217.86 43.65 217.81 44.08 217.81 44.59C217.81 45.18 217.91 45.68 218.12 46.07C218.33 46.46 218.69 46.65 219.2 46.65C219.91 46.65 220.41 46.35 220.72 45.75C220.95 45.28 221.07 44.63 221.07 43.79C221.07 43.5 221.07 43.07 221.07 42.49C221.07 41.91 221.07 41.47 221.07 41.18L220.08 41.64C219.74 41.79 219.49 41.89 219.33 41.94C219.01 42.07 218.77 42.21 218.6 42.35Z" fill="#FFFFFF" fill-opacity="1.000000" fill-rule="nonzero"/>
	<path id="Vector" d="M48.61 19.54L42.73 19.54L42.73 0.76L59.02 0.76C74.2 0.63 84 10.22 84 26.06C84 41.9 73.59 51.36 59.02 51.36L58.89 51.36L42.73 51.36L42.73 32.45L48.61 32.45L48.61 32.47C48.61 33.25 48.61 33.51 48.61 34.11L48.61 45.22L60.97 45.22L60.97 32.45L73.47 32.45L73.47 19.54L60.97 19.54L60.97 6.77L48.61 6.77L48.61 18.01L48.61 19.54ZM42.73 51.36L42.36 51.36L42.36 44.46C38.08 49.18 31.83 52 24.97 52C11.14 52 0 40.37 0 26.06C0 11.62 11.14 0 24.97 0C31.83 0 38.08 2.93 42.36 7.53L42.36 0.76L42.73 0.76L42.73 19.54L42.36 19.54L36.85 19.54C34.77 14.69 30.24 11.37 25.1 11.37C17.99 11.37 12.12 17.88 12.12 26.06C12.12 34.11 17.99 40.75 25.1 40.75C30.24 40.75 34.77 37.3 36.85 32.45L42.36 32.45L42.73 32.45L42.73 51.36Z" fill="#FFFFFF" fill-opacity="1.000000" fill-rule="evenodd"/>
</svg>
