<svg width="25.000000" height="25.000000" viewBox="0 0 25 25" fill="none" xmlns="http://www.w3.org/2000/svg" xmlns:xlink="http://www.w3.org/1999/xlink">
	<desc>
			Created with Pixso.
	</desc>
	<defs/>
	<path id="Vector" d="M0.29 1.7C0.19 1.61 0.12 1.5 0.07 1.38C0.02 1.26 -0.01 1.13 -0.01 1C-0.01 0.86 0.02 0.73 0.07 0.61C0.12 0.49 0.19 0.38 0.29 0.29C0.38 0.19 0.49 0.12 0.61 0.07C0.73 0.02 0.86 -0.01 1 -0.01C1.13 -0.01 1.26 0.02 1.38 0.07C1.5 0.12 1.61 0.19 1.7 0.29L12 10.58L22.29 0.29C22.38 0.19 22.49 0.12 22.61 0.07C22.73 0.02 22.86 -0.01 23 -0.01C23.13 -0.01 23.26 0.02 23.38 0.07C23.5 0.12 23.61 0.19 23.7 0.29C23.8 0.38 23.87 0.49 23.92 0.61C23.97 0.73 24 0.86 24 1C24 1.13 23.97 1.26 23.92 1.38C23.87 1.5 23.8 1.61 23.7 1.7L13.41 12L23.7 22.29C23.8 22.38 23.87 22.49 23.92 22.61C23.97 22.73 24 22.86 24 23C24 23.13 23.97 23.26 23.92 23.38C23.87 23.5 23.8 23.61 23.7 23.7C23.61 23.8 23.5 23.87 23.38 23.92C23.26 23.97 23.13 24 23 24C22.86 24 22.73 23.97 22.61 23.92C22.49 23.87 22.38 23.8 22.29 23.7L12 13.41L1.7 23.7C1.61 23.8 1.5 23.87 1.38 23.92C1.26 23.97 1.13 24 1 24C0.86 24 0.73 23.97 0.61 23.92C0.49 23.87 0.38 23.8 0.29 23.7C0.19 23.61 0.12 23.5 0.07 23.38C0.02 23.26 -0.01 23.13 -0.01 23C-0.01 22.86 0.02 22.73 0.07 22.61C0.12 22.49 0.19 22.38 0.29 22.29L10.58 12L0.29 1.7Z" fill="#FFFFFF" fill-opacity="1.000000" fill-rule="nonzero"/>
</svg>
