<svg width="513.000000" height="35.000000" viewBox="0 0 513 35" fill="none" xmlns="http://www.w3.org/2000/svg" xmlns:xlink="http://www.w3.org/1999/xlink">
	<desc>
			Created with Pixso.
	</desc>
	<defs>
		<clipPath id="clip195_8726">
			<rect id="umbrella-logo 1" width="512.099976" height="34.080002" fill="white" fill-opacity="0"/>
		</clipPath>
	</defs>
	<rect id="umbrella-logo 1" width="512.099976" height="34.080002" fill="#FFFFFF" fill-opacity="0"/>
	<g clip-path="url(#clip195_8726)">
		<path id="Vector" d="M150.82 2L152 2L156.39 13.59L155.08 13.59L153.96 10.59L148.77 10.59L147.64 13.59L146.39 13.59L150.82 2ZM153.59 9.45L151.41 3.6L149.22 9.45L153.59 9.45Z" fill="#231F20" fill-opacity="1.000000" fill-rule="nonzero"/>
		<path id="Vector" d="M158.42 4.99L159.6 4.99L159.6 6.36C159.82 5.92 160.16 5.54 160.58 5.27C161.01 5.01 161.5 4.86 162 4.85C162.5 4.84 163 4.98 163.43 5.26C163.85 5.55 164.18 5.95 164.37 6.42C164.62 5.95 165 5.56 165.47 5.28C165.93 5 166.46 4.86 167 4.85C168.67 4.85 169.72 6.01 169.72 8L169.72 13.61L168.54 13.61L168.54 8.26C168.54 6.7 167.86 5.87 166.67 5.87C165.48 5.87 164.67 6.76 164.67 8.31L164.67 13.55L163.48 13.55L163.48 8.26C163.48 6.72 162.8 5.89 161.62 5.89C161.32 5.92 161.03 6 160.77 6.14C160.51 6.27 160.28 6.46 160.09 6.69C159.9 6.92 159.76 7.18 159.68 7.47C159.6 7.75 159.58 8.05 159.62 8.34L159.62 13.57L158.42 13.57L158.42 4.99Z" fill="#231F20" fill-opacity="1.000000" fill-rule="nonzero"/>
		<path id="Vector" d="M171.9 9.37L171.9 9.28C171.9 6.67 173.43 4.83 175.45 4.83C177.47 4.83 178.89 6.68 178.89 9.27L178.89 9.77L173.12 9.77C173.25 11.66 174.42 12.71 175.77 12.71C176.19 12.7 176.6 12.61 176.99 12.44C177.37 12.27 177.71 12.02 178 11.71L178.68 12.48C178.3 12.89 177.83 13.22 177.32 13.44C176.8 13.67 176.24 13.77 175.68 13.76C173.62 13.77 171.9 12.09 171.9 9.37ZM177.7 8.84C177.62 7.21 176.85 5.84 175.45 5.84C174.05 5.84 173.22 7.02 173.1 8.84L177.7 8.84Z" fill="#231F20" fill-opacity="1.000000" fill-rule="nonzero"/>
		<path id="Vector" d="M181.05 4.99L182.24 4.99L182.24 6.89C182.45 6.29 182.85 5.77 183.38 5.41C183.91 5.05 184.54 4.87 185.19 4.89L185.19 6.16L185.12 6.16C183.52 6.16 182.24 7.29 182.24 9.5L182.24 13.59L181.05 13.59L181.05 4.99Z" fill="#231F20" fill-opacity="1.000000" fill-rule="nonzero"/>
		<path id="Vector" d="M187.08 1.83L188.4 1.83L188.4 3.24L187.08 3.24L187.08 1.83ZM187.15 5L188.34 5L188.34 13.59L187.15 13.59L187.15 5Z" fill="#231F20" fill-opacity="1.000000" fill-rule="nonzero"/>
		<path id="Vector" d="M190.66 9.37L190.66 9.26C190.66 6.66 192.34 4.82 194.48 4.82C194.99 4.82 195.49 4.92 195.96 5.12C196.44 5.32 196.86 5.62 197.21 5.99L196.53 6.89C196.27 6.59 195.96 6.35 195.61 6.18C195.25 6 194.87 5.91 194.48 5.89C193.05 5.89 191.89 7.26 191.89 9.24L191.89 9.32C191.89 11.37 193.08 12.65 194.53 12.65C194.91 12.64 195.29 12.54 195.63 12.37C195.98 12.2 196.28 11.95 196.53 11.65L197.21 12.45C196.87 12.85 196.45 13.17 195.97 13.4C195.49 13.62 194.97 13.73 194.45 13.72C192.3 13.77 190.66 12 190.66 9.37Z" fill="#231F20" fill-opacity="1.000000" fill-rule="nonzero"/>
		<path id="Vector" d="M198.67 11.09L198.67 11C198.67 9.23 199.94 8.22 201.84 8.22C202.59 8.23 203.33 8.34 204.05 8.57L204.05 8.09C204.07 7.8 204.03 7.51 203.93 7.24C203.83 6.97 203.67 6.72 203.46 6.52C203.25 6.32 202.99 6.16 202.72 6.07C202.44 5.98 202.14 5.96 201.86 5.99C201.09 6.01 200.33 6.21 199.66 6.57L199.28 5.57C200.11 5.13 201.05 4.89 202 4.88C202.43 4.86 202.87 4.92 203.28 5.07C203.7 5.22 204.07 5.45 204.4 5.74C204.68 6.06 204.9 6.42 205.04 6.82C205.19 7.22 205.25 7.64 205.23 8.06L205.23 13.59L204.06 13.59L204.06 12.36C203.78 12.8 203.4 13.17 202.94 13.42C202.48 13.67 201.96 13.8 201.44 13.78C201.09 13.81 200.75 13.76 200.42 13.64C200.1 13.53 199.8 13.35 199.54 13.13C199.28 12.9 199.07 12.62 198.92 12.31C198.77 12 198.68 11.66 198.67 11.31C198.66 11.24 198.66 11.17 198.67 11.09ZM204.07 10.59L204.07 9.52C203.4 9.29 202.7 9.18 202 9.18C200.63 9.18 199.87 9.86 199.87 10.97C199.86 11.2 199.9 11.43 199.98 11.64C200.07 11.85 200.19 12.04 200.35 12.2C200.5 12.36 200.69 12.49 200.9 12.58C201.11 12.67 201.33 12.72 201.56 12.72L201.7 12.72C202.28 12.76 202.86 12.57 203.31 12.18C203.75 11.79 204.02 11.24 204.07 10.65C204.06 10.62 204.06 10.58 204.07 10.55L204.07 10.59Z" fill="#231F20" fill-opacity="1.000000" fill-rule="nonzero"/>
		<path id="Vector" d="M207.77 4.99L209 4.99L209 6.39C209.23 5.92 209.59 5.52 210.03 5.24C210.48 4.97 211 4.82 211.53 4.82C213.29 4.82 214.34 6.03 214.34 7.96L214.34 13.58L213.15 13.58L213.15 8.26C213.15 6.72 212.43 5.87 211.15 5.87C210.84 5.88 210.54 5.96 210.26 6.09C209.98 6.22 209.74 6.41 209.53 6.64C209.33 6.87 209.18 7.14 209.09 7.43C209 7.72 208.96 8.03 209 8.33L209 13.55L207.81 13.55L207.77 4.99Z" fill="#231F20" fill-opacity="1.000000" fill-rule="nonzero"/>
		<path id="Vector" d="M225.11 2L226.33 2L230.73 13.59L229.42 13.59L228.29 10.59L223.1 10.59L221.98 13.59L220.69 13.59L225.11 2ZM227.88 9.45L225.7 3.59L223.52 9.42L227.88 9.45Z" fill="#231F20" fill-opacity="1.000000" fill-rule="nonzero"/>
		<path id="Vector" d="M231.94 12.53L232.57 11.66C233.26 12.27 234.14 12.63 235.07 12.66C235.26 12.68 235.46 12.66 235.65 12.61C235.84 12.55 236.02 12.45 236.17 12.33C236.32 12.2 236.44 12.04 236.53 11.86C236.61 11.68 236.66 11.48 236.67 11.29C236.67 10.53 235.99 10.14 234.81 9.66C233.45 9.07 232.35 8.52 232.35 7.18C232.36 6.85 232.44 6.53 232.58 6.23C232.73 5.93 232.93 5.67 233.18 5.46C233.42 5.24 233.71 5.08 234.03 4.98C234.34 4.88 234.67 4.84 235 4.88C235.98 4.89 236.93 5.22 237.73 5.81L237.15 6.71C236.53 6.22 235.78 5.94 235 5.9C234.09 5.9 233.52 6.43 233.52 7.11C233.52 7.83 234.25 8.2 235.43 8.69C236.84 9.32 237.83 9.91 237.83 11.22C237.82 11.56 237.74 11.91 237.59 12.23C237.45 12.54 237.23 12.83 236.97 13.06C236.71 13.29 236.4 13.47 236.07 13.57C235.74 13.68 235.38 13.71 235.04 13.68C233.9 13.68 232.8 13.27 231.94 12.53Z" fill="#231F20" fill-opacity="1.000000" fill-rule="nonzero"/>
		<path id="Vector" d="M239.09 12.52L239.71 11.65C240.4 12.27 241.29 12.62 242.22 12.65C242.41 12.68 242.61 12.66 242.8 12.61C242.99 12.55 243.17 12.45 243.32 12.33C243.47 12.2 243.59 12.04 243.68 11.86C243.76 11.68 243.81 11.48 243.82 11.28C243.82 10.52 243.14 10.14 241.95 9.65C240.59 9.06 239.5 8.51 239.5 7.17C239.5 6.84 239.58 6.51 239.72 6.21C239.87 5.91 240.07 5.64 240.32 5.42C240.57 5.2 240.86 5.04 241.18 4.94C241.5 4.83 241.83 4.8 242.17 4.83C243.15 4.85 244.11 5.17 244.9 5.76L244.32 6.66C243.7 6.18 242.94 5.89 242.16 5.85C241.26 5.85 240.68 6.38 240.68 7.06C240.68 7.78 241.42 8.15 242.59 8.64C244 9.34 245 9.93 245 11.24C244.99 11.59 244.91 11.94 244.76 12.26C244.61 12.57 244.4 12.86 244.14 13.09C243.88 13.32 243.57 13.49 243.24 13.6C242.9 13.7 242.55 13.74 242.21 13.71C241.06 13.71 239.95 13.29 239.09 12.52Z" fill="#231F20" fill-opacity="1.000000" fill-rule="nonzero"/>
		<path id="Vector" d="M246.73 9.37L246.73 9.26C246.73 6.75 248.34 4.83 250.55 4.83C252.76 4.83 254.35 6.73 254.35 9.23L254.35 9.34C254.35 11.84 252.74 13.77 250.53 13.77C248.32 13.77 246.73 11.87 246.73 9.37ZM253.15 9.37L253.15 9.29C253.15 7.36 252 5.93 250.53 5.93C249.06 5.93 248 7.36 248 9.28L248 9.36C248 11.29 249.14 12.72 250.6 12.72C252.06 12.72 253.2 11.25 253.2 9.35L253.15 9.37Z" fill="#231F20" fill-opacity="1.000000" fill-rule="nonzero"/>
		<path id="Vector" d="M256.13 9.38L256.13 9.27C256.13 6.67 257.81 4.83 259.95 4.83C260.46 4.82 260.96 4.92 261.43 5.12C261.9 5.32 262.33 5.62 262.68 6L261.99 6.9C261.74 6.6 261.44 6.36 261.09 6.18C260.75 6.01 260.37 5.91 259.99 5.9C258.54 5.9 257.4 7.27 257.4 9.25L257.4 9.33C257.4 11.38 258.59 12.66 260.04 12.66C260.42 12.64 260.8 12.54 261.14 12.37C261.49 12.19 261.79 11.95 262.04 11.66L262.72 12.45C262.39 12.85 261.97 13.18 261.5 13.41C261.03 13.64 260.52 13.76 260 13.77C257.73 13.77 256.13 12 256.13 9.38Z" fill="#231F20" fill-opacity="1.000000" fill-rule="nonzero"/>
		<path id="Vector" d="M264.71 1.83L266 1.83L266 3.24L264.68 3.24L264.71 1.83ZM264.76 5L266 5L266 13.59L264.81 13.59L264.76 5Z" fill="#231F20" fill-opacity="1.000000" fill-rule="nonzero"/>
		<path id="Vector" d="M268.2 11.1L268.2 11C268.2 9.24 269.48 8.23 271.37 8.23C272.12 8.23 272.86 8.34 273.57 8.58L273.57 8.1C273.6 7.59 273.44 7.09 273.11 6.7C272.78 6.31 272.32 6.06 271.82 6C271.67 5.98 271.53 5.98 271.39 6C270.62 6 269.86 6.2 269.19 6.58L268.82 5.58C269.65 5.13 270.59 4.89 271.54 4.89C271.97 4.86 272.41 4.92 272.83 5.07C273.24 5.22 273.62 5.45 273.95 5.75C274.23 6.06 274.45 6.42 274.59 6.82C274.74 7.22 274.8 7.64 274.78 8.07L274.78 13.6L273.6 13.6L273.6 12.36C273.33 12.8 272.95 13.17 272.49 13.42C272.03 13.67 271.52 13.79 271 13.79C270.3 13.82 269.62 13.59 269.1 13.13C268.59 12.66 268.27 12.02 268.23 11.33C268.21 11.25 268.2 11.17 268.2 11.1ZM273.59 10.6L273.59 9.53C272.94 9.3 272.27 9.18 271.59 9.19C270.23 9.19 269.46 9.87 269.46 10.98C269.45 11.2 269.49 11.43 269.57 11.64C269.66 11.85 269.78 12.04 269.94 12.2C270.09 12.36 270.28 12.49 270.49 12.58C270.7 12.67 270.92 12.72 271.15 12.73L271.29 12.73C271.89 12.75 272.46 12.54 272.9 12.15C273.34 11.75 273.6 11.19 273.63 10.61L273.63 10.6L273.59 10.6Z" fill="#231F20" fill-opacity="1.000000" fill-rule="nonzero"/>
		<path id="Vector" d="M277.6 11.59L277.6 6.04L276.6 6.04L276.6 5L277.6 5L277.6 2.48L278.78 2.48L278.78 5L281 5L281 6L278.75 6L278.75 11.4C278.71 11.68 278.78 11.97 278.96 12.2C279.13 12.43 279.39 12.58 279.68 12.63L280 12.63C280.34 12.61 280.68 12.53 281 12.4L281 13.4C280.59 13.59 280.15 13.7 279.71 13.7C279.2 13.76 278.69 13.62 278.29 13.3C277.88 12.99 277.62 12.53 277.56 12.03C277.55 11.88 277.56 11.73 277.6 11.59Z" fill="#231F20" fill-opacity="1.000000" fill-rule="nonzero"/>
		<path id="Vector" d="M283.22 1.83L284.54 1.83L284.54 3.24L283.22 3.24L283.22 1.83ZM283.28 5L284.48 5L284.48 13.59L283.28 13.59L283.28 5Z" fill="#231F20" fill-opacity="1.000000" fill-rule="nonzero"/>
		<path id="Vector" d="M286.79 9.37L286.79 9.26C286.79 6.75 288.41 4.83 290.62 4.83C292.82 4.83 294.43 6.73 294.43 9.23L294.43 9.34C294.43 11.84 292.81 13.77 290.6 13.77C288.39 13.77 286.79 11.87 286.79 9.37ZM293.22 9.37L293.22 9.29C293.22 7.36 292.07 5.93 290.6 5.93C289.13 5.93 288 7.36 288 9.28L288 9.36C288 11.29 289.14 12.72 290.6 12.72C292.07 12.72 293.2 11.25 293.2 9.35L293.22 9.37Z" fill="#231F20" fill-opacity="1.000000" fill-rule="nonzero"/>
		<path id="Vector" d="M296.62 5L297.81 5L297.81 6.39C298.04 5.92 298.4 5.52 298.85 5.24C299.3 4.96 299.82 4.82 300.35 4.83C302.09 4.83 303.15 6.04 303.15 7.97L303.15 13.59L302 13.59L302 8.27C302 6.73 301.28 5.88 300 5.88C299.69 5.88 299.38 5.95 299.1 6.08C298.82 6.21 298.57 6.4 298.37 6.63C298.16 6.86 298.01 7.13 297.91 7.42C297.82 7.72 297.79 8.03 297.82 8.34L297.82 13.56L296.63 13.56L296.62 5Z" fill="#231F20" fill-opacity="1.000000" fill-rule="nonzero"/>
		<path id="Vector" d="M147.5 25.84L146.45 25.84L146.45 24.84L147.5 24.84L147.5 24C147.46 23.27 147.71 22.55 148.19 22C148.41 21.79 148.67 21.63 148.96 21.52C149.25 21.42 149.55 21.37 149.86 21.39C150.24 21.38 150.63 21.44 151 21.56L151 22.61C150.67 22.51 150.33 22.45 150 22.45C149.14 22.45 148.7 22.97 148.7 24.06L148.7 24.79L151 24.79L151 25.79L148.77 25.79L148.77 33.32L147.57 33.32L147.5 25.84Z" fill="#231F20" fill-opacity="1.000000" fill-rule="nonzero"/>
		<path id="Vector" d="M152 29.15L152 29C152 26.49 153.62 24.59 155.82 24.59C158.02 24.59 159.63 26.48 159.63 28.99L159.63 29.08C159.63 31.59 158.02 33.52 155.81 33.52C153.6 33.52 152 31.66 152 29.15ZM158.42 29.15L158.42 29.07C158.42 27.14 157.28 25.7 155.81 25.7C154.34 25.7 153.22 27.14 153.22 29.05L153.22 29.13C153.22 31.06 154.36 32.49 155.82 32.49C157.28 32.49 158.42 31.03 158.42 29.13L158.42 29.15Z" fill="#231F20" fill-opacity="1.000000" fill-rule="nonzero"/>
		<path id="Vector" d="M161.8 24.77L163 24.77L163 26.66C163.21 26.05 163.62 25.52 164.16 25.16C164.7 24.8 165.35 24.63 166 24.66L166 25.99L165.94 25.99C164.34 25.99 163.05 27.1 163.05 29.31L163.05 33.39L161.8 33.39L161.8 24.77Z" fill="#231F20" fill-opacity="1.000000" fill-rule="nonzero"/>
		<path id="Vector" d="M172.07 27.66L172.07 27.57C172.07 24.07 174.24 21.67 177.13 21.67C177.78 21.65 178.42 21.77 179.02 22.01C179.63 22.25 180.18 22.62 180.64 23.08L179.88 24.02C179.52 23.64 179.09 23.34 178.61 23.13C178.14 22.93 177.62 22.82 177.11 22.82C174.99 22.82 173.35 24.77 173.35 27.55L173.35 27.62C173.35 30.45 174.99 32.39 177.11 32.39C177.65 32.38 178.19 32.26 178.68 32.04C179.18 31.82 179.63 31.5 180 31.1L180.74 31.96C180.26 32.47 179.68 32.87 179.03 33.14C178.39 33.41 177.69 33.55 177 33.54C174.19 33.53 172.07 31.18 172.07 27.66Z" fill="#231F20" fill-opacity="1.000000" fill-rule="nonzero"/>
		<path id="Vector" d="M182.15 30.88L182.15 30.81C182.15 29.05 183.42 28.04 185.32 28.04C186.07 28.04 186.81 28.15 187.53 28.39L187.53 27.88C187.56 27.36 187.4 26.85 187.07 26.46C186.74 26.06 186.28 25.81 185.77 25.75C185.62 25.73 185.48 25.73 185.34 25.75C184.57 25.76 183.81 25.96 183.14 26.33L182.77 25.33C183.6 24.88 184.54 24.65 185.49 24.65C185.92 24.62 186.36 24.68 186.78 24.83C187.19 24.98 187.57 25.21 187.9 25.51C188.18 25.82 188.4 26.18 188.54 26.58C188.69 26.98 188.74 27.4 188.72 27.83L188.72 33.34L187.56 33.34L187.56 32.12C187.28 32.56 186.9 32.93 186.44 33.18C185.98 33.44 185.46 33.57 184.94 33.56C184.59 33.58 184.24 33.53 183.92 33.41C183.59 33.3 183.29 33.12 183.03 32.89C182.77 32.66 182.56 32.38 182.41 32.07C182.26 31.76 182.17 31.42 182.16 31.08C182.15 31.01 182.14 30.94 182.15 30.88ZM187.55 30.38L187.55 29.31C186.88 29.07 186.17 28.96 185.47 28.96C184.1 28.96 183.34 29.65 183.34 30.76C183.32 30.98 183.36 31.21 183.44 31.43C183.51 31.64 183.63 31.84 183.79 32.01C183.94 32.17 184.13 32.31 184.34 32.41C184.54 32.5 184.77 32.56 185 32.57L185.14 32.57C185.43 32.59 185.72 32.55 186 32.45C186.28 32.36 186.54 32.21 186.76 32.02C186.98 31.82 187.16 31.58 187.29 31.32C187.41 31.06 187.49 30.77 187.51 30.48C187.51 30.48 187.51 30.42 187.51 30.39L187.55 30.38Z" fill="#231F20" fill-opacity="1.000000" fill-rule="nonzero"/>
		<path id="Vector" d="M191.25 24.78L192.44 24.78L192.44 26.18C192.67 25.7 193.03 25.3 193.49 25.02C193.94 24.74 194.46 24.6 195 24.62C196.75 24.62 197.8 25.82 197.8 27.74L197.8 33.37L196.6 33.37L196.6 28.08C196.6 26.55 195.87 25.69 194.6 25.69C194.29 25.69 193.98 25.76 193.7 25.89C193.42 26.02 193.17 26.2 192.96 26.44C192.76 26.67 192.6 26.94 192.51 27.23C192.42 27.53 192.38 27.84 192.42 28.15L192.42 33.37L191.23 33.37L191.25 24.78Z" fill="#231F20" fill-opacity="1.000000" fill-rule="nonzero"/>
		<path id="Vector" d="M199.89 29.16L199.89 29.05C199.89 26.44 201.58 24.62 203.72 24.62C204.23 24.61 204.73 24.7 205.2 24.91C205.67 25.11 206.09 25.41 206.44 25.79L205.76 26.67C205.51 26.37 205.2 26.13 204.86 25.96C204.52 25.78 204.14 25.68 203.76 25.67C202.33 25.67 201.18 27.03 201.18 29.01L201.18 29.09C201.18 31.14 202.36 32.41 203.81 32.41C204.19 32.4 204.57 32.3 204.91 32.13C205.26 31.95 205.56 31.71 205.81 31.42L206.49 32.21C206.15 32.62 205.73 32.94 205.25 33.17C204.77 33.39 204.24 33.5 203.72 33.5C201.52 33.55 199.89 31.77 199.89 29.16Z" fill="#231F20" fill-opacity="1.000000" fill-rule="nonzero"/>
		<path id="Vector" d="M207.79 29.15L207.79 29.07C207.79 26.44 209.32 24.62 211.33 24.62C213.34 24.62 214.78 26.46 214.78 29.05C214.79 29.21 214.79 29.37 214.78 29.54L209 29.54C209.13 31.44 210.31 32.54 211.65 32.54C212.06 32.53 212.48 32.44 212.86 32.27C213.24 32.1 213.58 31.85 213.86 31.54L214.54 32.29C214.16 32.71 213.7 33.04 213.18 33.26C212.66 33.49 212.1 33.59 211.54 33.58C209.5 33.55 207.79 31.87 207.79 29.15ZM213.59 28.62C213.51 26.99 212.73 25.62 211.33 25.62C209.93 25.62 209.11 26.79 208.99 28.62L213.59 28.62Z" fill="#231F20" fill-opacity="1.000000" fill-rule="nonzero"/>
		<path id="Vector" d="M216.91 24.77L218.09 24.77L218.09 26.66C218.3 26.06 218.7 25.54 219.23 25.18C219.76 24.82 220.39 24.64 221.04 24.66L221.04 25.99L221 25.99C219.41 25.99 218.12 27.1 218.12 29.31L218.12 33.39L216.94 33.39L216.91 24.77Z" fill="#231F20" fill-opacity="1.000000" fill-rule="nonzero"/>
		<path id="Vector" d="M227.62 21.82L231.62 21.82C232.16 21.8 232.71 21.88 233.22 22.06C233.74 22.24 234.21 22.53 234.62 22.89C234.92 23.21 235.15 23.58 235.31 23.99C235.47 24.4 235.54 24.84 235.53 25.27C235.55 26.07 235.29 26.84 234.78 27.45C234.28 28.06 233.58 28.47 232.8 28.6L235.9 33.33L234.42 33.33L231.52 28.85L228.87 28.85L228.87 33.33L227.63 33.33L227.62 21.82ZM231.35 27.76C233.22 27.76 234.26 26.81 234.26 25.35L234.26 25.29C234.26 23.78 233.26 22.94 231.48 22.94L228.87 22.94L228.87 27.71L231.35 27.76Z" fill="#231F20" fill-opacity="1.000000" fill-rule="nonzero"/>
		<path id="Vector" d="M237.31 29.15L237.31 29.07C237.31 26.44 238.84 24.62 240.85 24.62C243.01 24.62 244.3 26.46 244.3 29.05C244.31 29.21 244.31 29.37 244.3 29.54L238.54 29.54C238.67 31.44 239.84 32.54 241.19 32.54C241.61 32.53 242.02 32.44 242.41 32.27C242.79 32.1 243.13 31.85 243.42 31.54L244.1 32.29C243.72 32.7 243.25 33.04 242.74 33.26C242.22 33.48 241.66 33.59 241.1 33.58C239 33.55 237.31 31.87 237.31 29.15ZM243.12 28.62C243.03 26.99 242.26 25.62 240.85 25.62C239.59 25.62 238.63 26.79 238.52 28.62L243.12 28.62Z" fill="#231F20" fill-opacity="1.000000" fill-rule="nonzero"/>
		<path id="Vector" d="M245.67 32.31L246.3 31.44C246.99 32.05 247.87 32.41 248.8 32.43C248.99 32.46 249.19 32.45 249.38 32.39C249.57 32.34 249.75 32.24 249.9 32.11C250.05 31.98 250.17 31.83 250.26 31.65C250.34 31.47 250.39 31.27 250.4 31.08C250.4 30.32 249.72 29.93 248.53 29.45C247.17 28.86 246.08 28.31 246.08 26.98C246.08 26.64 246.16 26.31 246.3 26.01C246.45 25.71 246.65 25.44 246.9 25.22C247.15 25 247.44 24.84 247.76 24.74C248.08 24.63 248.41 24.6 248.75 24.64C249.73 24.64 250.69 24.97 251.48 25.56L250.91 26.46C250.28 25.98 249.53 25.7 248.75 25.66C247.84 25.66 247.26 26.18 247.26 26.86C247.26 27.59 248 27.95 249.17 28.44C250.59 29.07 251.58 29.66 251.58 30.97C251.57 31.32 251.49 31.66 251.34 31.98C251.2 32.3 250.99 32.58 250.72 32.81C250.46 33.05 250.15 33.22 249.82 33.33C249.49 33.43 249.13 33.47 248.79 33.43C247.64 33.44 246.54 33.04 245.67 32.31Z" fill="#231F20" fill-opacity="1.000000" fill-rule="nonzero"/>
		<path id="Vector" d="M253.28 29.15L253.28 29.07C253.28 26.44 254.82 24.62 256.82 24.62C258.99 24.62 260.28 26.46 260.28 29.05C260.29 29.21 260.29 29.37 260.28 29.54L254.49 29.54C254.62 31.44 255.79 32.54 257.14 32.54C257.56 32.53 257.97 32.44 258.36 32.27C258.74 32.1 259.08 31.85 259.37 31.54L260.04 32.29C259.68 32.7 259.22 33.03 258.71 33.25C258.2 33.47 257.65 33.58 257.1 33.58C255 33.55 253.28 31.87 253.28 29.15ZM259.09 28.62C259.01 26.99 258.23 25.62 256.82 25.62C255.43 25.62 254.61 26.79 254.49 28.62L259.09 28.62Z" fill="#231F20" fill-opacity="1.000000" fill-rule="nonzero"/>
		<path id="Vector" d="M261.85 30.88L261.85 30.81C261.85 29.05 263.13 28.04 265.01 28.04C265.76 28.04 266.51 28.15 267.23 28.39L267.23 27.88C267.26 27.36 267.1 26.85 266.77 26.46C266.44 26.06 265.98 25.81 265.47 25.75C265.32 25.74 265.18 25.74 265.04 25.75C264.27 25.75 263.52 25.95 262.85 26.33L262.47 25.33C263.31 24.88 264.24 24.65 265.2 24.65C265.63 24.62 266.07 24.68 266.48 24.83C266.9 24.98 267.27 25.21 267.6 25.51C267.88 25.82 268.1 26.18 268.25 26.58C268.39 26.98 268.45 27.4 268.43 27.83L268.43 33.34L267.26 33.34L267.26 32.12C266.98 32.56 266.6 32.93 266.14 33.18C265.68 33.44 265.16 33.57 264.64 33.56C263.94 33.59 263.25 33.35 262.73 32.89C262.21 32.42 261.9 31.77 261.85 31.08L261.85 30.88ZM267.25 30.38L267.25 29.31C266.58 29.07 265.87 28.96 265.17 28.96C263.81 28.96 263.04 29.65 263.04 30.76C263.03 31.21 263.21 31.65 263.52 31.98C263.84 32.31 264.28 32.5 264.74 32.52L264.88 32.52C265.47 32.55 266.05 32.35 266.49 31.96C266.94 31.57 267.21 31.02 267.25 30.43L267.25 30.34L267.25 30.38Z" fill="#231F20" fill-opacity="1.000000" fill-rule="nonzero"/>
		<path id="Vector" d="M271 24.77L272.18 24.77L272.18 26.66C272.39 26.06 272.79 25.54 273.32 25.18C273.85 24.82 274.48 24.64 275.13 24.66L275.13 25.99L275.07 25.99C273.46 25.99 272.18 27.1 272.18 29.31L272.18 33.39L271 33.39L271 24.77Z" fill="#231F20" fill-opacity="1.000000" fill-rule="nonzero"/>
		<path id="Vector" d="M276.2 29.16L276.2 29.05C276.2 26.44 277.88 24.62 280.01 24.62C280.53 24.61 281.04 24.71 281.51 24.91C281.98 25.11 282.4 25.41 282.75 25.79L282.06 26.67C281.81 26.37 281.51 26.12 281.16 25.95C280.82 25.78 280.44 25.68 280.06 25.67C278.63 25.67 277.47 27.03 277.47 29.01L277.47 29.09C277.47 31.14 278.66 32.42 280.1 32.42C280.49 32.4 280.87 32.3 281.21 32.13C281.56 31.96 281.86 31.71 282.1 31.42L282.79 32.21C282.45 32.63 282.03 32.97 281.54 33.2C281.06 33.43 280.53 33.55 280 33.55C277.82 33.55 276.2 31.77 276.2 29.16Z" fill="#231F20" fill-opacity="1.000000" fill-rule="nonzero"/>
		<path id="Vector" d="M284.75 21.47L285.94 21.47L285.94 26.18C286.17 25.7 286.53 25.3 286.98 25.02C287.43 24.75 287.95 24.61 288.48 24.62C290.22 24.62 291.28 25.82 291.28 27.74L291.28 33.37L290.09 33.37L290.09 28.08C290.09 26.55 289.35 25.69 288.09 25.69C287.78 25.69 287.47 25.76 287.19 25.89C286.91 26.02 286.67 26.21 286.46 26.44C286.26 26.67 286.1 26.94 286.01 27.23C285.92 27.53 285.88 27.84 285.92 28.15L285.92 33.37L284.73 33.37L284.75 21.47Z" fill="#231F20" fill-opacity="1.000000" fill-rule="nonzero"/>
		<path id="Vector" d="M45.79 0.75L33.65 29.82L21.02 0.75L13.62 0.75L0 33.33L6.84 33.33L17.28 6.63L23.17 20.75L15.7 20.75L15.7 26.15L25.42 26.15L28.41 33.33L32.18 33.33L35.16 33.33L39.03 33.33L49.47 6.63L55.35 20.75L47.88 20.75L47.88 26.15L57.59 26.15L60.59 33.33L67.35 33.33L53.21 0.75L45.79 0.75Z" fill="#231F20" fill-opacity="1.000000" fill-rule="nonzero"/>
		<path id="Vector" d="M119.82 20.14L128 33.33L135.08 33.33L125.79 18.62C127.33 17.91 128.63 16.75 129.52 15.29C130.41 13.84 130.85 12.15 130.78 10.45C130.78 1.34 121.89 0.76 119.52 0.76L107 0.76L107 14.4L85.6 14.4L85.6 20.12L107 20.12L107 33.31L113.24 33.31L113.24 20.15L119.84 20.15L119.82 20.14ZM119.47 14.43L113.24 14.43L113.24 6.09L119.47 6.09C121.29 6.09 124.55 6.81 124.55 10.22C124.55 13.63 121.09 14.42 119.47 14.42L119.47 14.43Z" fill="#50B748" fill-opacity="1.000000" fill-rule="nonzero"/>
		<path id="Vector" d="M91.2 26.32C89.43 27.39 87.4 27.95 85.33 27.91C83.27 27.88 81.25 27.25 79.53 26.11C77.81 24.97 76.44 23.36 75.6 21.48C74.76 19.59 74.48 17.5 74.78 15.46C75.08 13.41 75.97 11.5 77.32 9.94C78.67 8.38 80.45 7.23 82.43 6.64C84.41 6.06 86.51 6.04 88.5 6.61C90.49 7.18 92.27 8.3 93.65 9.85L98.38 5.85C96.5 3.72 94.12 2.09 91.46 1.11C88.8 0.14 85.93 -0.16 83.13 0.26C80.32 0.67 77.67 1.78 75.4 3.49C73.13 5.19 71.33 7.43 70.15 10.01C68.97 12.59 68.46 15.43 68.65 18.26C68.85 21.09 69.75 23.82 71.28 26.21C72.8 28.6 74.9 30.58 77.38 31.95C79.86 33.32 82.65 34.05 85.49 34.08C87.85 34.11 90.2 33.65 92.37 32.72C94.54 31.79 96.49 30.41 98.1 28.67L93.42 24.67C92.76 25.31 92.01 25.86 91.2 26.31L91.2 26.32Z" fill="#231F20" fill-opacity="1.000000" fill-rule="nonzero"/>
		<path id="Vector" d="M293.73 21.47C293.3 21.47 292.89 21.63 292.59 21.94C292.29 22.24 292.12 22.65 292.12 23.08C292.12 23.5 292.29 23.91 292.59 24.21C292.89 24.52 293.3 24.69 293.73 24.69C294.15 24.69 294.56 24.52 294.86 24.21C295.17 23.91 295.34 23.5 295.34 23.08C295.34 22.86 295.3 22.66 295.22 22.46C295.14 22.27 295.02 22.09 294.87 21.94C294.73 21.79 294.55 21.67 294.36 21.59C294.16 21.51 293.96 21.47 293.75 21.47L293.73 21.47ZM295.16 23.08C295.16 23.46 295.01 23.82 294.74 24.09C294.48 24.36 294.12 24.52 293.74 24.53C293.55 24.53 293.37 24.49 293.2 24.42C293.02 24.35 292.87 24.25 292.74 24.12C292.6 23.99 292.5 23.83 292.43 23.66C292.35 23.49 292.32 23.31 292.32 23.13C292.3 22.93 292.32 22.73 292.39 22.54C292.45 22.36 292.55 22.18 292.69 22.04C292.82 21.89 292.98 21.78 293.17 21.7C293.35 21.62 293.54 21.58 293.74 21.58C293.94 21.58 294.13 21.62 294.32 21.7C294.5 21.78 294.66 21.89 294.79 22.04C294.93 22.18 295.03 22.36 295.09 22.54C295.16 22.73 295.18 22.93 295.17 23.13L295.16 23.08Z" fill="#231F20" fill-opacity="1.000000" fill-rule="nonzero"/>
		<path id="Vector" d="M294.09 23.26C294.2 23.23 294.29 23.16 294.37 23.07C294.44 22.98 294.47 22.87 294.48 22.76C294.48 22.42 294.2 22.24 293.84 22.24L293.1 22.24L293.1 23.88L293.42 23.88L293.42 23.31L293.76 23.31L294.15 23.88L294.53 23.88L294.09 23.26ZM293.81 23.06L293.42 23.06L293.42 22.52L293.81 22.52C294.03 22.52 294.15 22.61 294.15 22.78C294.15 22.95 294.03 23.05 293.81 23.05L293.81 23.06Z" fill="#231F20" fill-opacity="1.000000" fill-rule="nonzero"/>
		<path id="Vector" d="M323 29.75L324.92 28.1C326.35 30.29 327.84 31.46 330.29 31.46C332.95 31.46 334.9 29.55 334.9 25.82L334.9 10.07L337.58 10.07L337.58 25.79C337.64 26.91 337.48 28.05 337.1 29.11C336.73 30.18 336.14 31.16 335.38 32C333.98 33.3 332.12 34 330.21 33.94C328.74 33.96 327.29 33.59 326.01 32.85C324.74 32.11 323.7 31.04 323 29.75Z" fill="#000000" fill-opacity="1.000000" fill-rule="nonzero"/>
		<path id="Vector" d="M342.77 21.89L342.77 21.82C342.76 20.24 343.07 18.68 343.67 17.22C344.27 15.76 345.15 14.44 346.26 13.32C347.37 12.2 348.69 11.32 350.15 10.71C351.6 10.1 353.16 9.79 354.74 9.79C356.31 9.78 357.87 10.09 359.33 10.69C360.79 11.29 362.11 12.17 363.23 13.28C364.35 14.39 365.23 15.71 365.84 17.17C366.45 18.62 366.76 20.18 366.77 21.76L366.77 21.82C366.77 25 365.52 28.05 363.28 30.31C361.03 32.57 357.98 33.84 354.8 33.85C353.22 33.85 351.66 33.55 350.21 32.95C348.75 32.35 347.42 31.47 346.3 30.36C344.05 28.12 342.77 25.07 342.77 21.89ZM364 21.89L364 21.82C364 16.48 360.1 12.11 354.73 12.11C349.36 12.11 345.53 16.41 345.53 21.76L345.53 21.82C345.53 27.16 349.42 31.53 354.8 31.53C360.18 31.53 364 27.23 364 21.89Z" fill="#000000" fill-opacity="1.000000" fill-rule="nonzero"/>
		<path id="Vector" d="M372 23.74L372 10.07L374.66 10.07L374.66 23.57C374.66 28.64 377.38 31.5 381.85 31.5C386.32 31.5 388.93 28.88 388.93 23.74L388.93 10.07L391.59 10.07L391.59 23.53C391.59 30.39 387.66 33.95 381.78 33.95C375.9 33.95 372 30.39 372 23.74Z" fill="#000000" fill-opacity="1.000000" fill-rule="nonzero"/>
		<path id="Vector" d="M397.86 10.07L408 10.07C409.21 10 410.42 10.17 411.57 10.57C412.72 10.98 413.77 11.6 414.68 12.42C415.27 13.03 415.74 13.75 416.05 14.55C416.36 15.34 416.51 16.19 416.5 17.05L416.5 17.12C416.5 21.02 413.81 23.3 410.12 23.97L417.34 33.58L414.08 33.58L407.26 24.44L400.54 24.44L400.54 33.58L397.89 33.58L397.86 10.07ZM407.73 22.07C411.26 22.07 413.73 20.25 413.73 17.23L413.73 17.16C413.73 14.27 411.51 12.53 407.73 12.53L400.47 12.53L400.47 22.07L407.73 22.07Z" fill="#000000" fill-opacity="1.000000" fill-rule="nonzero"/>
		<path id="Vector" d="M422.14 10.07L424.63 10.07L439.44 28.91L439.44 10.07L442 10.07L442 33.58L439.88 33.58L424.73 14.3L424.73 33.58L422.14 33.58L422.14 10.07Z" fill="#000000" fill-opacity="1.000000" fill-rule="nonzero"/>
		<path id="Vector" d="M457.38 9.89L459.87 9.89L470.58 33.57L467.73 33.57L465 27.35L452.2 27.35L449.42 33.57L446.69 33.57L457.38 9.89ZM463.93 24.99L458.59 12.99L453.21 24.99L463.93 24.99Z" fill="#000000" fill-opacity="1.000000" fill-rule="nonzero"/>
		<path id="Vector" d="M475.21 10.07L477.87 10.07L477.87 31.13L491.1 31.13L491.1 33.58L475.21 33.58L475.21 10.07Z" fill="#000000" fill-opacity="1.000000" fill-rule="nonzero"/>
		<path id="Vector" d="M494.46 30.15L496.11 28.2C497.16 29.26 498.41 30.11 499.8 30.68C501.18 31.25 502.67 31.54 504.17 31.53C507.33 31.53 509.41 29.85 509.41 27.53L509.41 27.46C509.41 25.28 508.23 24.04 503.3 23C497.89 21.82 495.4 20.07 495.4 16.2L495.4 16.15C495.4 12.45 498.66 9.73 503.13 9.73C506.14 9.64 509.08 10.67 511.39 12.62L509.85 14.67C507.96 13.02 505.55 12.11 503.06 12.11C500 12.11 498.06 13.79 498.06 15.91L498.06 16C498.06 18.2 499.27 19.45 504.44 20.57C509.61 21.68 512.09 23.62 512.09 27.22L512.09 27.28C512.09 31.28 508.74 33.93 504.1 33.93C500.51 33.97 497.05 32.61 494.46 30.15Z" fill="#000000" fill-opacity="1.000000" fill-rule="nonzero"/>
	</g>
</svg>
