<svg width="15.000000" height="25.000000" viewBox="0 0 15 25" fill="none" xmlns="http://www.w3.org/2000/svg" xmlns:xlink="http://www.w3.org/1999/xlink">
	<desc>
			Created with Pixso.
	</desc>
	<defs/>
	<path id="Vector" d="M3.09 15.53C1.23 15.5 0 13.49 0 11.12C0 8.06 2.7 5.82 3.5 4.56C4.17 3.49 5.16 -0.25 8.31 -0.25C10.17 -0.25 11.59 1.71 11.37 2.37C9.78 3.71 9.29 3 8.42 3.9C7.54 4.8 7.28 5.26 6.59 5.57C3.93 6.77 2.62 8.25 2.62 10.68C2.62 15.48 3.93 17.25 3.93 19C3.93 20.75 2.62 22.55 2.62 " stroke="#FFFFFF" stroke-opacity="1.000000" stroke-width="1.000000" stroke-linejoin="round" stroke-linecap="round"/>
	<path id="Vector" d="M11.22 2.49C11.22 2.49 11.56 3.25 11.39 3.7C11.22 4.16 10.91 4.85 10.5 5L10.5 6.31L10.06 6.31C10.06 6.31 9.26 7.62 8.75 7.62C8.23 7.62 7.6 7.07 7.43 " stroke="#FFFFFF" stroke-opacity="1.000000" stroke-width="1.000000" stroke-linejoin="round" stroke-linecap="round"/>
	<path id="Vector" d="M11.28 1.75C11.28 1.75 12.25 1.91 12.25 4.56C12.25 6.66 10.93 7.78 10.93 9.75C10.93 10.98 11.12 12.32 10.55 13.01M5.68 7.62C6.15 7.62 7.87 8.71 7.87 9.81L7.87 15.5C7.87 16.51 10.85 21.18 11.37 21.18C11.89 21.18 12.48 21.41 12.68 21.62C12.83 21.64 12.99 21.65 13.13 21.64C13.19 21.64 13.25 21.65 13.3 21.68C13.35 21.7 13.4 21.73 13.44 21.77C13.48 21.81 13.51 21.86 13.53 21.91C13.55 21.97 13.56 22.02 13.56 22.08C13.55 22.76 13.39 23.81 12.25 23.81C10.77 23.81 10.16 22.61 9.62 21.62C9.62 21.62 6.56 19.3 5.68 17.25C5.68 17.25 4.42 11.2 4.37 " stroke="#FFFFFF" stroke-opacity="1.000000" stroke-width="1.000000" stroke-linejoin="round"/>
	<path id="Vector" d="M9.9 15.23C12.49 16.83 13.43 17.64 13.92 19.5C13.97 19.67 13.99 19.85 13.99 20.04C13.99 20.79 13.66 21.51 13.49 21.83M7.78 7.16C7.78 7.16 7.01 7.81 6.95 " stroke="#FFFFFF" stroke-opacity="1.000000" stroke-width="1.000000" stroke-linejoin="round"/>
	<path id="Vector" d="M7.87 9.81C8.42 10.6 10.5 12.35 10.5 13.75C10.5 15.14 9.62 15.5 9.18 " stroke="#FFFFFF" stroke-opacity="1.000000" stroke-width="1.000000" stroke-linejoin="round" stroke-linecap="round"/>
</svg>
