<svg width="25.000000" height="25.000000" viewBox="0 0 25 25" fill="none" xmlns="http://www.w3.org/2000/svg" xmlns:xlink="http://www.w3.org/1999/xlink">
	<desc>
			Created with Pixso.
	</desc>
	<defs/>
	<path id="Vector" d="M17.65 9.65C15.95 7.16 13.09 5.52 9.85 5.52C4.63 5.52 0.41 9.75 0.41 14.96C0.41 17.31 1.26 19.46 2.68 21.11M3.7 22.13C5.35 23.55 7.5 24.41 9.85 24.41C15.06 24.41 19.29 20.18 19.29 14.96C19.29 14.16 19.19 13.38 19 12.63M21.27 5.05C21.63 4.59 21.5 4.14 21.39 3.91C21.28 3.68 21.01 3.3 20.42 3.3C19.83 3.3 19.56 3.68 19.45 3.91C19.34 4.14 19.21 4.59 19.57 " stroke="#FFFFFF" stroke-opacity="1.000000" stroke-width="1.000000" stroke-linejoin="round"/>
	<path id="Vector" d="M17.22 2.02C17.92 1.06 19.04 0.41 20.42 0.41C23.74 0.41 25.6 4.23 23.55 6.84L17.73 14.24C17.31 14.78 16.44 14.48 16.44 13.8L16.44 11.7C16.44 11.38 16.55 11.06 16.75 10.81L21.7 4.49C22.55 3.42 21.78 1.85 20.42 1.85C19.06 1.85 18.3 3.42 19.14 4.49L20.42 " stroke="#FFFFFF" stroke-opacity="1.000000" stroke-width="1.000000" stroke-linejoin="round" stroke-linecap="round"/>
	<path id="Vector" d="M16.59 3.32C16.27 4.46 16.44 5.76 17.29 6.84L18.58 8.47M22.26 8.47L24.1 10.81C24.3 11.06 24.41 11.38 24.41 11.7L24.41 13.8C24.41 14.48 23.54 14.78 23.11 14.24L20.42 10.82M10.54 9.96C10.09 10.14 9.6 10.14 9.15 9.96C8.23 9.58 7.18 10.02 6.8 10.94C6.61 11.38 6.26 11.73 5.82 11.91C4.9 12.3 4.46 13.35 4.84 14.27C5.02 14.72 5.02 15.21 4.84 15.66C4.46 16.58 4.9 17.63 5.82 18.02C6.26 18.2 6.61 18.55 6.8 18.99C7.18 19.91 8.23 20.35 9.15 19.97C9.6 19.79 10.09 19.79 10.54 19.97C11.46 20.35 12.51 19.91 12.9 18.99C13.08 18.55 13.43 18.2 13.87 18.02C14.79 17.63 15.23 16.58 14.85 15.66C14.67 15.21 14.67 14.72 14.85 14.27C15.23 13.35 14.79 12.3 13.87 11.91C13.65 11.82 13.46 11.69 13.29 11.52C13.12 11.36 12.99 11.16 12.9 10.94C12.51 10.02 11.46 9.58 10.54 9.96Z" stroke="#FFFFFF" stroke-opacity="1.000000" stroke-width="1.000000" stroke-linejoin="round"/>
	<path id="Vector" d="M10.9 13.43L10.87 13.45C10.6 13.73 10.23 13.88 9.85 13.88C9.46 13.88 9.09 13.73 8.82 13.45L8.8 13.43C8.51 13.14 8.05 13.14 7.77 13.43C7.49 13.71 7.49 14.17 7.77 14.45C8.05 14.74 8.05 15.19 7.77 15.48C7.49 15.76 7.49 16.22 7.77 16.5C8.05 16.78 8.51 16.78 8.8 16.5L8.82 16.48C9.09 16.2 9.46 16.05 9.85 16.05C10.23 16.05 10.6 16.2 10.87 16.48L10.9 16.5C11.18 16.78 11.64 16.78 11.92 16.5C12.2 16.22 12.2 15.76 11.92 15.48C11.64 15.19 11.64 14.74 11.92 14.45C12.2 14.17 12.2 13.71 11.92 13.43C11.64 13.14 11.18 13.14 10.9 13.43Z" stroke="#FFFFFF" stroke-opacity="1.000000" stroke-width="1.000000" stroke-linejoin="round"/>
</svg>
