<svg width="172.000000" height="26.000000" viewBox="0 0 172 26" fill="none" xmlns="http://www.w3.org/2000/svg" xmlns:xlink="http://www.w3.org/1999/xlink">
	<desc>
			Created with Pixso.
	</desc>
	<defs>
		<clipPath id="clip195_9080">
			<rect id="prodoctorov-logo 1" width="172.000000" height="26.000000" fill="white" fill-opacity="0"/>
		</clipPath>
	</defs>
	<rect id="prodoctorov-logo 1" width="172.000000" height="26.000000" fill="#FFFFFF" fill-opacity="0"/>
	<g clip-path="url(#clip195_9080)">
		<path id="Vector" d="M9.63 8.42L3.06 8.42L3.06 19.45L0 19.45L0 5.6L12.69 5.6L12.69 19.45L9.63 19.45L9.63 8.42Z" fill="#FF4A37" fill-opacity="1.000000" fill-rule="nonzero"/>
		<path id="Vector" d="M15.68 5.6L18.75 5.6L18.75 7.11C19.37 6.53 20.05 6.08 20.76 5.76C21.48 5.44 22.29 5.28 23.19 5.28C24.19 5.28 25.11 5.46 25.96 5.84C26.82 6.19 27.55 6.7 28.16 7.35C28.77 7.99 29.25 8.76 29.59 9.65C29.93 10.52 30.1 11.47 30.1 12.5C30.1 13.56 29.91 14.54 29.54 15.43C29.18 16.3 28.68 17.05 28.06 17.69C27.43 18.31 26.67 18.8 25.8 19.16C24.93 19.51 24.01 19.69 23.02 19.69C22.15 19.69 21.36 19.56 20.66 19.29C19.96 19.02 19.32 18.65 18.75 18.17L18.75 24.78L15.68 24.78L15.68 5.6ZM22.57 16.86C23.18 16.86 23.74 16.77 24.26 16.57C24.8 16.38 25.27 16.09 25.66 15.72C26.06 15.33 26.36 14.87 26.58 14.33C26.81 13.78 26.93 13.16 26.93 12.47C26.93 11.83 26.83 11.24 26.63 10.71C26.43 10.16 26.15 9.7 25.77 9.33C25.41 8.93 24.98 8.63 24.48 8.42C23.98 8.21 23.42 8.1 22.81 8.1C21.88 8.1 21.05 8.32 20.33 8.77C19.63 9.21 19.11 9.74 18.75 10.36L18.75 14.57C19.11 15.32 19.62 15.89 20.28 16.28C20.94 16.67 21.71 16.86 22.57 16.86Z" fill="#FF4A37" fill-opacity="1.000000" fill-rule="nonzero"/>
		<path id="Vector" d="M31.69 12.5C31.69 11.45 31.87 10.49 32.23 9.62C32.59 8.73 33.1 7.97 33.77 7.33C34.43 6.69 35.22 6.19 36.13 5.84C37.05 5.46 38.06 5.28 39.17 5.28C40.27 5.28 41.27 5.46 42.19 5.84C43.12 6.19 43.92 6.69 44.58 7.33C45.25 7.97 45.76 8.73 46.12 9.62C46.49 10.49 46.68 11.45 46.68 12.5C46.68 13.54 46.49 14.51 46.12 15.4C45.76 16.27 45.25 17.02 44.58 17.66C43.92 18.3 43.12 18.8 42.19 19.16C41.27 19.51 40.27 19.69 39.17 19.69C38.08 19.69 37.08 19.51 36.16 19.16C35.25 18.8 34.46 18.3 33.79 17.66C33.13 17.02 32.61 16.27 32.23 15.4C31.87 14.51 31.69 13.54 31.69 12.5ZM34.87 12.5C34.87 13.12 34.97 13.69 35.17 14.23C35.38 14.76 35.68 15.22 36.05 15.61C36.43 16 36.88 16.31 37.4 16.54C37.94 16.76 38.53 16.86 39.17 16.86C39.82 16.86 40.4 16.77 40.92 16.57C41.46 16.36 41.92 16.07 42.3 15.69C42.67 15.3 42.97 14.84 43.18 14.31C43.4 13.77 43.51 13.17 43.51 12.5C43.51 11.82 43.39 11.22 43.16 10.68C42.94 10.13 42.64 9.67 42.24 9.3C41.85 8.91 41.39 8.62 40.87 8.42C40.35 8.21 39.78 8.1 39.17 8.1C38.56 8.1 37.99 8.21 37.45 8.42C36.93 8.62 36.47 8.91 36.08 9.3C35.7 9.67 35.41 10.13 35.19 10.68C34.98 11.22 34.87 11.82 34.87 12.5Z" fill="#FF4A37" fill-opacity="1.000000" fill-rule="nonzero"/>
		<path id="Vector" d="M47.5 16.62L49.12 16.62C49.75 15.83 50.17 14.91 50.39 13.88C50.6 12.85 50.71 11.69 50.71 10.39L50.71 5.6L62 5.6L62 16.62L63.97 16.62L63.97 22.62L61.11 22.62L61.11 19.45L50.36 19.45L50.36 22.62L47.5 22.62L47.5 16.62ZM58.92 16.62L58.92 8.42L53.63 8.42L53.63 11.96C53.63 12.82 53.51 13.67 53.28 14.52C53.04 15.35 52.72 16.06 52.31 16.62L58.92 16.62Z" fill="#3981F1" fill-opacity="1.000000" fill-rule="nonzero"/>
		<path id="Vector" d="M64.59 12.5C64.59 11.45 64.77 10.49 65.13 9.62C65.49 8.73 66 7.97 66.67 7.33C67.34 6.69 68.13 6.19 69.05 5.84C69.96 5.46 70.98 5.28 72.1 5.28C73.19 5.28 74.2 5.46 75.12 5.84C76.06 6.19 76.86 6.69 77.52 7.33C78.19 7.97 78.7 8.73 79.06 9.62C79.44 10.49 79.63 11.45 79.63 12.5C79.63 13.54 79.44 14.51 79.06 15.4C78.7 16.27 78.19 17.02 77.52 17.66C76.86 18.3 76.06 18.8 75.12 19.16C74.2 19.51 73.19 19.69 72.1 19.69C71 19.69 69.99 19.51 69.07 19.16C68.16 18.8 67.36 18.3 66.7 17.66C66.03 17.02 65.51 16.27 65.13 15.4C64.77 14.51 64.59 13.54 64.59 12.5ZM67.78 12.5C67.78 13.12 67.88 13.69 68.07 14.23C68.29 14.76 68.59 15.22 68.97 15.61C69.34 16 69.79 16.31 70.32 16.54C70.86 16.76 71.45 16.86 72.1 16.86C72.74 16.86 73.33 16.77 73.85 16.57C74.39 16.36 74.85 16.07 75.23 15.69C75.61 15.3 75.9 14.84 76.12 14.31C76.34 13.77 76.44 13.17 76.44 12.5C76.44 11.82 76.33 11.22 76.09 10.68C75.88 10.13 75.57 9.67 75.17 9.3C74.78 8.91 74.32 8.62 73.8 8.42C73.28 8.21 72.71 8.1 72.1 8.1C71.48 8.1 70.91 8.21 70.37 8.42C69.85 8.62 69.39 8.91 68.99 9.3C68.61 9.67 68.32 10.13 68.1 10.68C67.89 11.22 67.78 11.82 67.78 12.5Z" fill="#3981F1" fill-opacity="1.000000" fill-rule="nonzero"/>
		<path id="Vector" d="M81.53 5.6L84.61 5.6L84.61 11.22L90.68 5.6L94.71 5.6L87.88 11.86L94.95 19.45L91.01 19.45L85.64 13.75L84.61 14.73L84.61 19.45L81.53 19.45L81.53 5.6Z" fill="#3981F1" fill-opacity="1.000000" fill-rule="nonzero"/>
		<path id="Vector" d="M95.92 5.6L109.15 5.6L109.15 8.42L104.08 8.42L104.08 19.45L101 19.45L101 8.42L95.92 8.42L95.92 5.6Z" fill="#3981F1" fill-opacity="1.000000" fill-rule="nonzero"/>
		<path id="Vector" d="M109.82 12.5C109.82 11.45 110 10.49 110.36 9.62C110.72 8.73 111.24 7.97 111.9 7.33C112.57 6.69 113.36 6.19 114.28 5.84C115.2 5.46 116.21 5.28 117.33 5.28C118.43 5.28 119.43 5.46 120.35 5.84C121.29 6.19 122.09 6.69 122.75 7.33C123.42 7.97 123.93 8.73 124.29 9.62C124.67 10.49 124.86 11.45 124.86 12.5C124.86 13.54 124.67 14.51 124.29 15.4C123.93 16.27 123.42 17.02 122.75 17.66C122.09 18.3 121.29 18.8 120.35 19.16C119.43 19.51 118.43 19.69 117.33 19.69C116.23 19.69 115.22 19.51 114.31 19.16C113.39 18.8 112.59 18.3 111.93 17.66C111.26 17.02 110.74 16.27 110.36 15.4C110 14.51 109.82 13.54 109.82 12.5ZM113.01 12.5C113.01 13.12 113.11 13.69 113.31 14.23C113.52 14.76 113.82 15.22 114.2 15.61C114.57 16 115.03 16.31 115.55 16.54C116.09 16.76 116.68 16.86 117.33 16.86C117.98 16.86 118.56 16.77 119.08 16.57C119.62 16.36 120.08 16.07 120.46 15.69C120.84 15.3 121.14 14.84 121.35 14.31C121.57 13.77 121.67 13.17 121.67 12.5C121.67 11.82 121.56 11.22 121.32 10.68C121.11 10.13 120.8 9.67 120.41 9.3C120.01 8.91 119.55 8.62 119.03 8.42C118.51 8.21 117.94 8.1 117.33 8.1C116.72 8.1 116.14 8.21 115.6 8.42C115.08 8.62 114.62 8.91 114.22 9.3C113.85 9.67 113.55 10.13 113.33 10.68C113.12 11.22 113.01 11.82 113.01 12.5Z" fill="#3981F1" fill-opacity="1.000000" fill-rule="nonzero"/>
		<path id="Vector" d="M126.74 5.6L129.82 5.6L129.82 7.11C130.45 6.53 131.12 6.08 131.84 5.76C132.56 5.44 133.37 5.28 134.27 5.28C135.28 5.28 136.21 5.46 137.05 5.84C137.92 6.19 138.65 6.7 139.27 7.35C139.88 7.99 140.36 8.76 140.7 9.65C141.04 10.52 141.21 11.47 141.21 12.5C141.21 13.56 141.02 14.54 140.64 15.43C140.28 16.3 139.79 17.05 139.16 17.69C138.53 18.31 137.77 18.8 136.89 19.16C136.03 19.51 135.1 19.69 134.11 19.69C133.23 19.69 132.44 19.56 131.73 19.29C131.03 19.02 130.39 18.65 129.82 18.17L129.82 24.78L126.74 24.78L126.74 5.6ZM133.65 16.86C134.26 16.86 134.83 16.77 135.35 16.57C135.89 16.38 136.36 16.09 136.75 15.72C137.15 15.33 137.46 14.87 137.67 14.33C137.91 13.78 138.02 13.16 138.02 12.47C138.02 11.83 137.92 11.24 137.73 10.71C137.53 10.16 137.24 9.7 136.86 9.33C136.5 8.93 136.07 8.63 135.57 8.42C135.06 8.21 134.51 8.1 133.89 8.1C132.96 8.1 132.13 8.32 131.41 8.77C130.71 9.21 130.18 9.74 129.82 10.36L129.82 14.57C130.18 15.32 130.69 15.89 131.36 16.28C132.02 16.67 132.79 16.86 133.65 16.86Z" fill="#3981F1" fill-opacity="1.000000" fill-rule="nonzero"/>
		<path id="Vector" d="M142.74 12.5C142.74 11.45 142.92 10.49 143.28 9.62C143.64 8.73 144.15 7.97 144.82 7.33C145.48 6.69 146.27 6.19 147.19 5.84C148.11 5.46 149.13 5.28 150.24 5.28C151.34 5.28 152.35 5.46 153.27 5.84C154.2 6.19 155 6.69 155.67 7.33C156.33 7.97 156.85 8.73 157.21 9.62C157.58 10.49 157.77 11.45 157.77 12.5C157.77 13.54 157.58 14.51 157.21 15.4C156.85 16.27 156.33 17.02 155.67 17.66C155 18.3 154.2 18.8 153.27 19.16C152.35 19.51 151.34 19.69 150.24 19.69C149.14 19.69 148.14 19.51 147.22 19.16C146.3 18.8 145.51 18.3 144.84 17.66C144.18 17.02 143.65 16.27 143.28 15.4C142.92 14.51 142.74 13.54 142.74 12.5ZM145.92 12.5C145.92 13.12 146.02 13.69 146.22 14.23C146.44 14.76 146.73 15.22 147.11 15.61C147.49 16 147.94 16.31 148.46 16.54C149 16.76 149.59 16.86 150.24 16.86C150.89 16.86 151.47 16.77 152 16.57C152.54 16.36 153 16.07 153.37 15.69C153.75 15.3 154.05 14.84 154.26 14.31C154.48 13.77 154.59 13.17 154.59 12.5C154.59 11.82 154.47 11.22 154.24 10.68C154.02 10.13 153.72 9.67 153.32 9.3C152.92 8.91 152.46 8.62 151.94 8.42C151.42 8.21 150.85 8.1 150.24 8.1C149.63 8.1 149.05 8.21 148.51 8.42C147.99 8.62 147.53 8.91 147.14 9.3C146.76 9.67 146.46 10.13 146.25 10.68C146.03 11.22 145.92 11.82 145.92 12.5Z" fill="#3981F1" fill-opacity="1.000000" fill-rule="nonzero"/>
		<path id="Vector" d="M159.69 5.6L165.68 5.6C167.64 5.6 169.12 5.87 170.11 6.42C171.1 6.97 171.59 7.92 171.59 9.27C171.59 9.91 171.45 10.45 171.16 10.9C170.87 11.34 170.49 11.74 170.02 12.1C170.69 12.34 171.19 12.76 171.51 13.35C171.83 13.92 172 14.57 172 15.32C172 16.7 171.5 17.74 170.51 18.44C169.52 19.11 168.13 19.45 166.33 19.45L159.69 19.45L159.69 5.6ZM162.76 13.72L162.76 16.7L166.03 16.7C166.95 16.7 167.64 16.59 168.11 16.36C168.58 16.13 168.81 15.75 168.81 15.24C168.81 14.69 168.58 14.3 168.14 14.07C167.7 13.84 167.03 13.72 166.11 13.72L162.76 13.72ZM162.76 8.34L162.76 11.08L166.38 11.08C167.01 11.08 167.51 10.97 167.87 10.74C168.23 10.51 168.4 10.15 168.4 9.67C168.4 9.1 168.16 8.74 167.68 8.58C167.21 8.42 166.52 8.34 165.6 8.34L162.76 8.34Z" fill="#3981F1" fill-opacity="1.000000" fill-rule="nonzero"/>
	</g>
</svg>
