<svg width="28.000000" height="30.000000" viewBox="0 0 28 30" fill="none" xmlns="http://www.w3.org/2000/svg" xmlns:xlink="http://www.w3.org/1999/xlink">
	<desc>
			Created with Pixso.
	</desc>
	<defs/>
	<path id="Vector" d="M5.36 16.97C2.37 16.95 0 14.6 0 11.69C0 8.14 3.48 5.62 6.91 6.63C7.41 6.78 7.89 7.01 8.33 7.29C9.65 8.16 11.02 8.69 12.57 8.89C12.6 8.89 12.63 8.92 12.63 8.95L12.63 12.28C12.63 12.29 12.62 12.31 12.61 12.32C12.6 12.33 12.58 12.34 12.56 12.34L11.56 12.34C11.12 12.34 10.77 12.69 10.77 13.12L10.77 14.38C10.77 14.81 11.12 15.16 11.56 15.16L12.56 15.16C12.6 15.16 12.63 15.19 12.63 15.22L12.63 16.21C12.63 16.64 12.98 16.99 13.42 16.99L14.7 16.99C14.92 16.99 15.11 16.9 15.26 16.76L15.26 16.76C15.4 16.62 15.49 16.42 15.49 16.21L15.49 15.22C15.49 15.19 15.52 15.16 15.55 15.16L16.56 15.16C16.78 15.16 16.97 15.07 17.12 14.93L17.12 14.93C17.26 14.79 17.35 14.59 17.35 14.38L17.35 13.12C17.35 12.69 16.99 12.34 16.56 12.34L15.55 12.34C15.54 12.34 15.52 12.33 15.51 12.32C15.5 12.31 15.49 12.29 15.49 12.28L15.49 8.93C15.49 8.92 15.5 8.91 15.51 8.89C15.52 8.88 15.53 8.87 15.55 8.87C17.05 8.66 18.38 8.13 19.66 7.29C21.79 5.9 24.62 6.18 26.42 7.96C28.52 10.02 28.52 13.36 26.42 15.43C25.45 16.39 24.12 16.97 22.63 16.97C21.61 16.98 20.78 16.16 20.78 15.15C20.78 13.52 22.78 12.71 23.94 13.85C24.16 14.07 24.32 14.34 24.41 14.64C24.5 14.93 24.51 15.24 24.44 15.54C24.44 15.55 24.44 15.57 24.44 15.58C24.45 15.59 24.46 15.6 24.46 15.6C24.48 15.62 24.51 15.62 24.53 15.61C27.25 14.33 27.92 10.75 25.75 8.62C24.26 7.16 21.93 6.93 20.19 8.07C20.03 8.17 19.88 8.27 19.72 8.36C19.71 8.37 19.71 8.37 19.7 8.38C19.7 8.39 19.69 8.4 19.69 8.4C19.45 9.45 19.24 10.36 19.16 11.45C19.05 12.93 19.11 14.93 18.6 16.18C18.04 17.58 17.24 17.6 16.98 19.1C16.81 20.04 17.06 20.73 17.31 21.41C17.71 22.53 18.11 23.65 17.2 25.67C17.19 25.69 17.18 25.71 17.17 25.73C17.17 25.73 17.17 25.73 17.17 25.74L15.38 29.1C14.75 30.29 13.24 30.29 12.61 29.1L10.8 25.7C10.8 25.69 10.8 25.68 10.79 25.67L10.79 25.67C9.88 23.65 10.28 22.53 10.68 21.41C10.93 20.73 11.18 20.04 11.01 19.1C10.75 17.6 9.95 17.58 9.38 16.18C8.79 14.7 8.99 12.22 8.73 10.6C8.62 9.9 8.47 9.12 8.3 8.4C8.3 8.4 8.29 8.39 8.29 8.38C8.28 8.37 8.28 8.37 8.27 8.36C7.67 8.01 7.39 7.75 6.64 7.53C3.82 6.69 0.95 8.77 0.95 11.69C0.95 13.4 1.95 14.9 3.46 15.61C3.48 15.62 3.51 15.62 3.53 15.6C3.53 15.6 3.54 15.59 3.55 15.58C3.55 15.57 3.55 15.55 3.55 15.54C3.29 14.42 4.16 13.32 5.36 13.32C7.01 13.32 7.84 15.29 6.67 16.44C6.5 16.61 6.29 16.74 6.07 16.83C5.84 16.93 5.6 16.97 5.36 16.97ZM14.54 12.81L14.54 8.13L14.54 8.13C14.54 8.02 14.58 7.92 14.65 7.84C14.71 7.75 14.81 7.7 14.91 7.67C16.71 7.28 18 5.7 18 3.88C18 1.73 16.24 0 14.06 0C11.88 0 10.11 1.73 10.11 3.88C10.11 5.28 10.88 6.6 12.16 7.29C12.48 7.46 12.81 7.58 13.16 7.66C13.16 7.66 13.17 7.66 13.17 7.66C13.28 7.68 13.39 7.74 13.46 7.82C13.54 7.91 13.58 8.02 13.58 8.13L13.58 12.81C13.58 12.93 13.53 13.05 13.44 13.14C13.35 13.23 13.23 13.28 13.1 13.28L11.78 13.28C11.76 13.28 11.75 13.28 11.74 13.29C11.72 13.31 11.72 13.32 11.72 13.34L11.72 14.16C11.72 14.19 11.75 14.22 11.78 14.22L13.1 14.22C13.23 14.22 13.35 14.27 13.44 14.36C13.53 14.45 13.58 14.57 13.58 14.69L13.58 15.99C13.58 16.03 13.61 16.05 13.64 16.05L14.48 16.05C14.49 16.05 14.51 16.05 14.52 16.04C14.53 16.02 14.54 16.01 14.54 15.99L14.54 14.69C14.54 14.57 14.59 14.45 14.68 14.36C14.77 14.27 14.89 14.22 15.02 14.22L16.34 14.22C16.35 14.22 16.37 14.22 16.38 14.2C16.39 14.19 16.4 14.18 16.4 14.16L16.4 13.34C16.4 13.32 16.39 13.31 16.38 13.29C16.37 13.28 16.35 13.28 16.34 13.28L15.02 13.28C14.95 13.28 14.89 13.26 14.83 13.24C14.78 13.22 14.72 13.18 14.68 13.14C14.63 13.1 14.6 13.04 14.58 12.99C14.55 12.93 14.54 12.87 14.54 12.81ZM14.06 6.51C15.53 6.51 16.73 5.33 16.73 3.88C16.73 2.43 15.53 1.25 14.06 1.25C12.58 1.25 11.39 2.43 11.39 3.88C11.39 5.33 12.58 6.51 14.06 6.51Z" fill="#1A3B9F" fill-opacity="1.000000" fill-rule="evenodd"/>
</svg>
