<svg width="247.000000" height="52.000000" viewBox="0 0 247 52" fill="none" xmlns="http://www.w3.org/2000/svg" xmlns:xlink="http://www.w3.org/1999/xlink">
	<desc>
			Created with Pixso.
	</desc>
	<defs>
		<clipPath id="clip195_8798">
			<rect id="logo_MSPH_new 1" width="247.000000" height="52.000000" fill="white" fill-opacity="0"/>
		</clipPath>
	</defs>
	<rect id="logo_MSPH_new 1" width="247.000000" height="52.000000" fill="#FFFFFF" fill-opacity="0"/>
	<g clip-path="url(#clip195_8798)">
		<path id="Vector" d="M67.5 7.71L69.27 7.71L69.27 17.65L76.31 7.71L78.49 7.71L78.49 20.07L76.72 20.07L76.72 9.88L69.42 20.07L67.5 20.07L67.5 7.71Z" fill="#1A3B9F" fill-opacity="1.000000" fill-rule="nonzero"/>
		<path id="Vector" d="M82.19 17.29C82.35 17.8 82.65 18.2 83.05 18.45C83.46 18.71 84.02 18.81 84.73 18.81C85.39 18.81 85.89 18.71 86.25 18.45C86.65 18.2 86.8 17.95 86.8 17.55C86.8 17.24 86.65 16.94 86.4 16.74C86.15 16.54 85.64 16.39 84.93 16.39L83.41 16.39L83.41 14.92L84.88 14.92C85.49 14.92 85.94 14.82 86.2 14.57C86.45 14.32 86.6 14.07 86.6 13.76C86.6 13.36 86.4 13.06 86.04 12.81C85.69 12.55 85.18 12.45 84.58 12.45C83.97 12.45 83.46 12.55 83.11 12.81C82.75 13.06 82.45 13.36 82.35 13.87L80.67 13.87C80.82 12.96 81.28 12.3 81.99 11.8C82.7 11.29 83.56 11.04 84.58 11.04C85.69 11.04 86.6 11.29 87.26 11.75C87.92 12.2 88.27 12.86 88.27 13.61C88.27 14.02 88.17 14.37 87.97 14.67C87.77 15.03 87.41 15.28 87.01 15.48C87.97 15.88 88.48 16.54 88.48 17.5C88.48 18.3 88.12 18.96 87.41 19.46C86.7 19.97 85.74 20.22 84.58 20.22C83.51 20.22 82.55 19.97 81.84 19.41C81.08 18.91 80.62 18.15 80.52 17.24L82.19 17.29Z" fill="#1A3B9F" fill-opacity="1.000000" fill-rule="nonzero"/>
		<path id="Vector" d="M99.42 18.45L99.42 21.99L97.8 21.99L97.8 20.07L91.06 20.07L91.06 21.99L89.44 21.99L89.44 18.45L90.56 18.45C90.81 17.75 90.91 16.39 90.91 14.42L90.91 11.24L98.21 11.24L98.21 18.45L99.42 18.45ZM96.48 18.51L96.48 12.81L92.58 12.81L92.58 14.37C92.58 16.13 92.43 17.5 92.18 18.51L96.48 18.51Z" fill="#1A3B9F" fill-opacity="1.000000" fill-rule="nonzero"/>
		<path id="Vector" d="M109.05 11.24L109.05 20.07L107.38 20.07L107.38 18.76C107.03 19.21 106.57 19.61 106.06 19.87C105.56 20.12 105 20.27 104.39 20.27C103.63 20.27 102.92 20.07 102.26 19.67C101.6 19.26 101.15 18.71 100.74 18.05C100.34 17.4 100.18 16.59 100.18 15.68C100.18 14.77 100.39 14.02 100.74 13.31C101.1 12.6 101.6 12.05 102.26 11.7C102.92 11.29 103.58 11.09 104.39 11.09C105 11.09 105.56 11.24 106.11 11.49C106.67 11.75 107.08 12.15 107.48 12.65L107.48 11.24L109.05 11.24ZM106.11 18.3C106.52 18.05 106.87 17.7 107.13 17.19C107.38 16.74 107.48 16.19 107.48 15.63C107.48 15.08 107.38 14.52 107.13 14.07C106.87 13.61 106.57 13.26 106.11 13.01C105.71 12.76 105.2 12.6 104.69 12.6C104.19 12.6 103.73 12.76 103.28 13.01C102.87 13.26 102.52 13.61 102.31 14.07C102.06 14.52 101.96 15.08 101.96 15.63C101.96 16.19 102.06 16.74 102.31 17.19C102.57 17.65 102.87 18 103.28 18.3C103.68 18.56 104.14 18.71 104.69 18.71C105.25 18.71 105.66 18.56 106.11 18.3Z" fill="#1A3B9F" fill-opacity="1.000000" fill-rule="nonzero"/>
		<path id="Vector" d="M118.63 12.86L115.54 12.86L115.54 20.07L113.87 20.07L113.87 12.86L110.78 12.86L110.78 11.29L118.63 11.29L118.63 12.86Z" fill="#1A3B9F" fill-opacity="1.000000" fill-rule="nonzero"/>
		<path id="Vector" d="M126.08 11.65C126.74 12.05 127.3 12.6 127.65 13.31C128 14.02 128.21 14.87 128.21 15.78C128.21 16.03 128.21 16.19 128.21 16.34L120.96 16.34C121.06 16.99 121.42 17.6 121.92 18C122.43 18.45 123.04 18.66 123.75 18.66C124.91 18.66 125.73 18.25 126.18 17.4L127.9 17.4C127.6 18.2 127.09 18.91 126.33 19.41C125.57 19.92 124.71 20.17 123.75 20.17C122.89 20.17 122.13 19.97 121.42 19.56C120.71 19.16 120.2 18.61 119.8 17.95C119.39 17.24 119.24 16.49 119.24 15.58C119.24 14.72 119.44 13.92 119.8 13.21C120.2 12.5 120.71 11.95 121.42 11.6C122.13 11.19 122.89 10.99 123.75 10.99C124.61 11.09 125.37 11.29 126.08 11.65ZM121.87 13.21C121.37 13.66 121.06 14.22 120.96 14.87L126.38 14.87C126.33 14.17 126.03 13.61 125.52 13.16C125.02 12.71 124.41 12.5 123.7 12.5C122.94 12.55 122.38 12.76 121.87 13.21Z" fill="#1A3B9F" fill-opacity="1.000000" fill-rule="nonzero"/>
		<path id="Vector" d="M137.94 20.07L136.27 20.07L136.27 12.86L132.47 12.86L132.47 14.47C132.47 15.73 132.41 16.74 132.26 17.55C132.11 18.35 131.86 18.96 131.4 19.46C130.94 19.97 130.34 20.17 129.53 20.17C129.32 20.17 129.07 20.12 128.82 20.07L128.82 18.51C129.02 18.56 129.22 18.56 129.37 18.56C129.73 18.56 130.03 18.45 130.24 18.2C130.44 17.95 130.59 17.55 130.64 16.94C130.69 16.34 130.74 15.43 130.74 14.27L130.74 11.24L137.89 11.24L137.94 20.07Z" fill="#1A3B9F" fill-opacity="1.000000" fill-rule="nonzero"/>
		<path id="Vector" d="M147.31 15.48C147.82 15.98 148.07 16.64 148.07 17.4C148.07 18.15 147.82 18.81 147.31 19.31C146.81 19.82 146.05 20.07 145.13 20.07L140.78 20.07L140.78 11.24L142.45 11.24L142.45 14.72L145.13 14.72C146.05 14.72 146.81 14.97 147.31 15.48ZM146 18.3C146.25 18.1 146.35 17.8 146.35 17.4C146.35 16.99 146.25 16.69 146 16.49C145.74 16.29 145.39 16.19 144.88 16.19L142.4 16.19L142.4 18.61L144.88 18.61C145.39 18.61 145.74 18.51 146 18.3Z" fill="#1A3B9F" fill-opacity="1.000000" fill-rule="nonzero"/>
		<path id="Vector" d="M149.9 13.36C150.3 12.65 150.86 12.1 151.62 11.7C152.38 11.29 153.14 11.09 154 11.09C154.97 11.09 155.88 11.39 156.64 11.95C157.4 12.5 157.96 13.26 158.21 14.17L156.38 14.17C156.18 13.71 155.88 13.31 155.42 13.06C154.97 12.81 154.46 12.65 153.95 12.65C153.39 12.65 152.89 12.81 152.48 13.06C152.08 13.31 151.72 13.66 151.47 14.17C151.22 14.67 151.01 15.13 151.01 15.68C151.01 16.24 151.11 16.74 151.37 17.24C151.62 17.7 151.98 18.05 152.38 18.35C152.84 18.61 153.29 18.76 153.85 18.76C154.41 18.76 154.86 18.61 155.32 18.35C155.78 18.1 156.08 17.7 156.28 17.24L158.11 17.24C157.85 18.15 157.35 18.91 156.54 19.46C155.78 20.02 154.86 20.32 153.9 20.32C153.04 20.32 152.23 20.12 151.52 19.72C150.81 19.31 150.25 18.76 149.8 18.05C149.39 17.35 149.19 16.59 149.19 15.73C149.24 14.82 149.49 14.02 149.9 13.36Z" fill="#1A3B9F" fill-opacity="1.000000" fill-rule="nonzero"/>
		<path id="Vector" d="M166.42 12.86L163.33 12.86L163.33 20.07L161.66 20.07L161.66 12.86L158.56 12.86L158.56 11.29L166.42 11.29L166.42 12.86Z" fill="#1A3B9F" fill-opacity="1.000000" fill-rule="nonzero"/>
		<path id="Vector" d="M175.49 17.6C175.49 18.3 175.24 18.91 174.68 19.36C174.17 19.82 173.41 20.07 172.5 20.07L168.04 20.07L168.04 11.24L172.5 11.24C173.41 11.24 174.07 11.49 174.58 11.9C175.08 12.35 175.34 12.91 175.34 13.61C175.34 14.02 175.24 14.37 175.03 14.72C174.83 15.08 174.53 15.33 174.12 15.53C175.08 15.98 175.49 16.69 175.49 17.6ZM172.3 14.92C172.75 14.92 173.06 14.82 173.31 14.62C173.51 14.42 173.67 14.12 173.67 13.71C173.67 13.01 173.21 12.65 172.35 12.65L169.76 12.65L169.76 14.92L172.3 14.92ZM173.41 18.35C173.67 18.15 173.77 17.85 173.77 17.45C173.77 17.09 173.67 16.79 173.41 16.59C173.16 16.39 172.8 16.29 172.35 16.29L169.71 16.29L169.71 18.66L172.35 18.66C172.8 18.66 173.16 18.56 173.41 18.35Z" fill="#1A3B9F" fill-opacity="1.000000" fill-rule="nonzero"/>
		<path id="Vector" d="M179.14 19.61C178.43 19.21 177.87 18.66 177.42 17.95C177.01 17.24 176.81 16.49 176.81 15.63C176.81 14.77 177.01 14.02 177.42 13.31C177.82 12.6 178.38 12.05 179.14 11.65C179.9 11.24 180.66 11.04 181.52 11.04C182.38 11.04 183.14 11.24 183.9 11.65C184.61 12.05 185.17 12.6 185.57 13.31C185.98 14.02 186.18 14.77 186.18 15.63C186.18 16.49 185.98 17.24 185.57 17.95C185.17 18.66 184.61 19.21 183.9 19.61C183.19 20.02 182.38 20.22 181.52 20.22C180.66 20.22 179.9 20.02 179.14 19.61ZM183.04 18.3C183.5 18.05 183.85 17.7 184.11 17.19C184.36 16.74 184.51 16.24 184.51 15.63C184.51 15.03 184.36 14.57 184.11 14.07C183.85 13.61 183.5 13.26 183.04 12.96C182.58 12.65 182.08 12.55 181.57 12.55C181.01 12.55 180.51 12.71 180.05 12.96C179.59 13.21 179.24 13.56 178.99 14.07C178.73 14.52 178.58 15.03 178.58 15.63C178.58 16.19 178.73 16.69 178.99 17.19C179.24 17.65 179.59 18 180.05 18.3C180.51 18.56 181.01 18.71 181.57 18.71C182.08 18.71 182.58 18.56 183.04 18.3Z" fill="#1A3B9F" fill-opacity="1.000000" fill-rule="nonzero"/>
		<path id="Vector" d="M71.8 41.05L69.73 41.05L67.04 38.02L67.04 36.56L69.73 33.54L71.8 33.54L68.56 37.27L71.8 41.05ZM75.55 41.05L73.48 41.05L70.79 38.02L70.79 36.56L73.48 33.54L75.55 33.54L72.31 37.27L75.55 41.05Z" fill="#1A3B9F" fill-opacity="1.000000" fill-rule="nonzero"/>
		<path id="Vector" d="M93.54 42.92L91.67 42.92L91.67 32.17L85.74 42.92L79.86 32.27L79.86 42.92L77.99 42.92L77.99 29.85L80.62 29.85L85.79 39.23L90.96 29.9L93.54 29.9L93.54 42.92Z" fill="#1A3B9F" fill-opacity="1.000000" fill-rule="nonzero"/>
		<path id="Vector" d="M103.22 34.04C103.93 34.44 104.49 35.05 104.9 35.81C105.3 36.56 105.45 37.42 105.45 38.43C105.45 38.68 105.45 38.88 105.45 39.03L97.75 39.03C97.85 39.74 98.21 40.34 98.76 40.8C99.32 41.25 99.98 41.5 100.69 41.5C101.91 41.5 102.77 41.05 103.28 40.19L105.1 40.19C104.8 41.05 104.24 41.76 103.43 42.31C102.62 42.87 101.7 43.17 100.69 43.17C99.78 43.17 98.97 42.97 98.21 42.56C97.45 42.16 96.89 41.55 96.48 40.85C96.08 40.09 95.88 39.29 95.88 38.38C95.88 37.47 96.08 36.61 96.48 35.91C96.89 35.2 97.45 34.59 98.21 34.19C98.92 33.79 99.78 33.59 100.69 33.59C101.65 33.43 102.52 33.64 103.22 34.04ZM98.76 35.65C98.21 36.11 97.9 36.71 97.8 37.42L103.58 37.42C103.53 36.66 103.17 36.06 102.67 35.6C102.11 35.15 101.5 34.95 100.69 34.95C99.93 35 99.32 35.2 98.76 35.65Z" fill="#1A3B9F" fill-opacity="1.000000" fill-rule="nonzero"/>
		<path id="Vector" d="M116.86 41.25L116.86 44.98L115.13 44.98L115.13 42.92L107.94 42.92L107.94 44.98L106.21 44.98L106.21 41.25L107.43 41.25C107.68 40.5 107.84 39.08 107.84 36.97L107.84 33.59L115.54 33.59L115.54 41.25L116.86 41.25ZM113.77 41.3L113.77 35.25L109.61 35.25L109.61 36.91C109.61 38.78 109.46 40.24 109.15 41.3L113.77 41.3Z" fill="#1A3B9F" fill-opacity="1.000000" fill-rule="nonzero"/>
		<path id="Vector" d="M118.73 33.59L120.51 33.59L120.51 40.55L125.37 33.59L127.35 33.59L127.35 42.92L125.57 42.92L125.57 36.01L120.71 42.97L118.73 42.97L118.73 33.59Z" fill="#1A3B9F" fill-opacity="1.000000" fill-rule="nonzero"/>
		<path id="Vector" d="M138.9 33.59L138.9 42.92L137.13 42.92L137.13 41.5C136.72 42.01 136.27 42.41 135.71 42.66C135.15 42.97 134.59 43.07 133.94 43.07C133.12 43.07 132.36 42.87 131.71 42.46C131.05 42.06 130.49 41.45 130.13 40.75C129.73 39.99 129.58 39.18 129.58 38.23C129.58 37.27 129.78 36.46 130.13 35.7C130.54 34.95 131.05 34.39 131.71 33.99C132.36 33.59 133.12 33.38 133.94 33.38C134.59 33.38 135.2 33.54 135.76 33.84C136.32 34.14 136.82 34.54 137.23 35.1L137.23 33.59L138.9 33.59ZM135.76 41.05C136.22 40.8 136.57 40.39 136.82 39.89C137.08 39.39 137.18 38.83 137.18 38.23C137.18 37.62 137.08 37.07 136.82 36.56C136.57 36.06 136.22 35.7 135.76 35.4C135.3 35.15 134.8 35 134.24 35C133.68 35 133.17 35.15 132.77 35.4C132.31 35.65 132.01 36.06 131.75 36.56C131.5 37.07 131.4 37.62 131.4 38.23C131.4 38.83 131.5 39.39 131.75 39.89C132.01 40.39 132.36 40.75 132.77 41.05C133.23 41.3 133.68 41.45 134.24 41.45C134.8 41.45 135.3 41.35 135.76 41.05Z" fill="#1A3B9F" fill-opacity="1.000000" fill-rule="nonzero"/>
		<path id="Vector" d="M147.36 32.98C147.97 31.97 148.78 31.16 149.8 30.56C150.81 29.95 151.98 29.65 153.19 29.65C154.16 29.65 155.07 29.85 155.88 30.21C156.69 30.56 157.45 31.11 158.06 31.77C158.67 32.43 159.12 33.23 159.37 34.14L157.3 34.14C156.89 33.28 156.33 32.68 155.67 32.17C154.97 31.67 154.16 31.47 153.19 31.47C152.28 31.47 151.52 31.67 150.76 32.12C150.05 32.58 149.44 33.13 149.04 33.89C148.63 34.64 148.43 35.45 148.43 36.36C148.43 37.27 148.63 38.07 149.04 38.83C149.44 39.59 150.05 40.19 150.76 40.6C151.47 41.05 152.28 41.25 153.19 41.25C154.16 41.25 154.97 41 155.67 40.55C156.38 40.09 156.94 39.44 157.3 38.58L159.37 38.58C159.07 39.49 158.61 40.24 158.06 40.95C157.45 41.61 156.74 42.16 155.88 42.51C155.07 42.87 154.16 43.07 153.19 43.07C151.92 43.07 150.81 42.77 149.8 42.16C148.78 41.55 147.97 40.75 147.36 39.74C146.76 38.73 146.45 37.57 146.45 36.31C146.5 35.15 146.76 34.04 147.36 32.98Z" fill="#1A3B9F" fill-opacity="1.000000" fill-rule="nonzero"/>
		<path id="Vector" d="M171.94 34.19C172.7 34.59 173.26 35.15 173.72 35.86C174.17 36.56 174.38 37.37 174.38 38.23C174.38 39.08 174.17 39.89 173.72 40.6C173.26 41.3 172.7 41.86 171.94 42.26C171.18 42.66 170.37 42.87 169.46 42.87L168.45 42.87L168.45 46.04L166.67 46.04L166.67 42.87L165.71 42.87C164.8 42.87 163.99 42.66 163.23 42.26C162.47 41.86 161.91 41.3 161.45 40.6C161 39.89 160.79 39.08 160.79 38.23C160.79 37.37 161 36.56 161.45 35.86C161.91 35.15 162.47 34.59 163.23 34.19C163.99 33.79 164.8 33.59 165.71 33.59L166.67 33.59L166.67 29.75L168.45 29.75L168.45 33.59L169.46 33.59C170.32 33.59 171.18 33.79 171.94 34.19ZM166.67 41.3L166.67 35.25L165.71 35.25C165.1 35.25 164.59 35.4 164.09 35.65C163.58 35.91 163.23 36.26 162.97 36.76C162.72 37.22 162.57 37.72 162.57 38.28C162.57 38.83 162.72 39.34 162.97 39.79C163.23 40.24 163.63 40.6 164.09 40.9C164.59 41.15 165.1 41.3 165.71 41.3L166.67 41.3ZM170.98 40.9C171.44 40.65 171.84 40.29 172.09 39.79C172.35 39.34 172.5 38.83 172.5 38.28C172.5 37.72 172.35 37.22 172.09 36.76C171.84 36.31 171.44 35.96 170.98 35.65C170.52 35.4 169.97 35.25 169.41 35.25L168.45 35.25L168.45 41.3L169.41 41.3C169.97 41.3 170.47 41.15 170.98 40.9Z" fill="#1A3B9F" fill-opacity="1.000000" fill-rule="nonzero"/>
		<path id="Vector" d="M183.09 34.04C183.8 34.44 184.36 35.05 184.76 35.81C185.17 36.56 185.32 37.42 185.32 38.43C185.32 38.68 185.32 38.88 185.32 39.03L177.62 39.03C177.72 39.74 178.07 40.34 178.63 40.8C179.19 41.25 179.85 41.5 180.56 41.5C181.77 41.5 182.64 41.05 183.14 40.19L184.97 40.19C184.66 41.05 184.11 41.76 183.29 42.31C182.48 42.87 181.57 43.17 180.56 43.17C179.65 43.17 178.83 42.97 178.07 42.56C177.31 42.16 176.76 41.55 176.35 40.85C175.95 40.09 175.74 39.29 175.74 38.38C175.74 37.47 175.95 36.61 176.35 35.91C176.76 35.2 177.31 34.59 178.07 34.19C178.78 33.79 179.65 33.59 180.56 33.59C181.52 33.43 182.33 33.64 183.09 34.04ZM178.63 35.65C178.13 36.11 177.77 36.71 177.67 37.42L183.45 37.42C183.4 36.66 183.04 36.06 182.53 35.6C182.03 35.15 181.37 34.95 180.56 34.95C179.8 35 179.14 35.2 178.63 35.65Z" fill="#1A3B9F" fill-opacity="1.000000" fill-rule="nonzero"/>
		<path id="Vector" d="M194.7 34.04C195.36 34.44 195.91 35.05 196.27 35.75C196.67 36.51 196.83 37.32 196.83 38.28C196.83 39.23 196.62 40.04 196.27 40.8C195.91 41.55 195.36 42.11 194.7 42.51C194.04 42.92 193.28 43.12 192.47 43.12C191.86 43.12 191.25 42.97 190.69 42.71C190.14 42.41 189.68 42.06 189.27 41.55L189.27 46.14L187.5 46.14L187.5 33.59L189.17 33.59L189.17 35.1C189.58 34.54 190.03 34.14 190.64 33.84C191.2 33.54 191.81 33.38 192.47 33.38C193.23 33.43 193.99 33.64 194.7 34.04ZM193.58 41.05C194.04 40.8 194.34 40.39 194.6 39.89C194.85 39.39 194.95 38.83 194.95 38.23C194.95 37.62 194.85 37.07 194.6 36.56C194.34 36.06 193.99 35.7 193.58 35.4C193.13 35.15 192.67 35 192.11 35C191.55 35 191.05 35.15 190.59 35.4C190.14 35.65 189.78 36.06 189.53 36.56C189.27 37.07 189.17 37.62 189.17 38.23C189.17 38.83 189.27 39.39 189.53 39.89C189.78 40.39 190.14 40.75 190.59 41.05C191.05 41.3 191.55 41.45 192.11 41.45C192.67 41.45 193.18 41.35 193.58 41.05Z" fill="#1A3B9F" fill-opacity="1.000000" fill-rule="nonzero"/>
		<path id="Vector" d="M207.62 33.59L207.62 42.92L205.85 42.92L205.85 41.5C205.44 42.01 204.98 42.41 204.43 42.66C203.87 42.97 203.31 43.07 202.65 43.07C201.84 43.07 201.08 42.87 200.42 42.46C199.76 42.06 199.21 41.45 198.85 40.75C198.45 39.99 198.29 39.18 198.29 38.23C198.29 37.27 198.5 36.46 198.85 35.7C199.26 34.95 199.76 34.39 200.42 33.99C201.08 33.59 201.84 33.38 202.65 33.38C203.31 33.38 203.92 33.54 204.48 33.84C205.03 34.14 205.54 34.54 205.95 35.1L205.95 33.59L207.62 33.59ZM204.48 41.05C204.93 40.8 205.29 40.39 205.54 39.89C205.8 39.39 205.9 38.83 205.9 38.23C205.9 37.62 205.8 37.07 205.54 36.56C205.29 36.06 204.93 35.7 204.48 35.4C204.02 35.15 203.51 35 202.96 35C202.4 35 201.89 35.15 201.49 35.4C201.03 35.65 200.73 36.06 200.47 36.56C200.22 37.07 200.12 37.62 200.12 38.23C200.12 38.83 200.22 39.39 200.47 39.89C200.73 40.39 201.08 40.75 201.49 41.05C201.94 41.3 202.4 41.45 202.96 41.45C203.51 41.45 204.02 41.35 204.48 41.05Z" fill="#1A3B9F" fill-opacity="1.000000" fill-rule="nonzero"/>
		<path id="Vector" d="M214.66 38.07L211.98 41.1L209.9 41.1L213.14 37.37L209.85 33.64L211.93 33.64L214.61 36.66L214.66 38.07ZM218.41 36.61L218.41 38.07L215.73 41.1L213.65 41.1L216.89 37.37L213.6 33.64L215.68 33.64L218.41 36.61Z" fill="#1A3B9F" fill-opacity="1.000000" fill-rule="nonzero"/>
		<path id="Vector" d="M29.84 51.64C34.71 51.64 39.27 50.28 43.17 48.01L59.69 51.64L59.69 0L43.12 3.63C39.22 1.36 34.71 0 29.84 0C24.98 0 20.42 1.36 16.52 3.63L0 0L0 51.64L16.52 48.01C20.42 50.28 24.98 51.64 29.84 51.64ZM58.78 1.05L58.78 50.53L44.19 47.3C51.18 42.66 55.79 34.8 55.79 25.77C55.79 16.74 51.18 8.92 44.19 4.28L58.78 1.05ZM45.4 25.36L45.4 19.06C48.54 18.4 51.23 17.55 53.16 16.64C54.22 19.36 54.88 22.29 54.93 25.42C54.88 25.36 45.4 25.36 45.4 25.36ZM54.88 26.22C54.83 29.3 54.22 32.27 53.1 34.95C51.18 34.04 48.49 33.23 45.35 32.53L45.35 26.22L54.88 26.22ZM37.6 19.46L37.6 10.74C40.79 10.03 43.88 8.82 46.57 7.31C49.2 9.68 51.33 12.55 52.75 15.83C49.76 17.24 44.19 18.71 37.6 19.46ZM52.8 35.8C51.38 39.08 49.25 42.01 46.62 44.33C43.93 42.77 40.84 41.61 37.65 40.9L37.65 32.17C44.19 32.88 49.76 34.39 52.8 35.8ZM30.25 0.85C32.88 0.9 35.42 1.36 37.8 2.16L39.07 2.62C39.12 2.62 39.17 2.67 39.22 2.67C36.43 3.83 33.44 4.43 30.25 4.53L30.25 0.85ZM30.25 5.34C33.8 5.29 37.19 4.48 40.28 3.12C40.79 3.37 41.35 3.63 41.85 3.88L42.97 4.53C43.98 5.14 45 5.85 45.91 6.65C41.5 9.12 36.03 10.64 30.3 10.74C30.25 10.74 30.25 5.34 30.25 5.34ZM30.25 40.9C36.03 41 41.5 42.51 45.91 44.98C45 45.74 43.98 46.45 42.97 47.1L41.85 47.76C41.35 48.01 40.84 48.31 40.28 48.51C37.19 47.15 33.8 46.4 30.25 46.3L30.25 40.9ZM30.25 47.1C33.39 47.15 36.43 47.81 39.22 48.92C39.17 48.92 39.12 48.97 39.07 48.97L37.8 49.42C35.42 50.23 32.88 50.68 30.25 50.73L30.25 47.1ZM29.39 50.78C26.75 50.73 24.22 50.28 21.84 49.47L20.57 49.02C20.52 49.02 20.47 48.97 20.42 48.97C23.21 47.86 26.2 47.2 29.39 47.15L29.39 50.78ZM29.39 46.25C25.79 46.3 22.39 47.1 19.35 48.46C18.85 48.21 18.29 47.96 17.83 47.71L16.72 47.05C15.7 46.45 14.69 45.74 13.78 44.93C18.14 42.51 23.66 40.95 29.39 40.85L29.39 46.25ZM14.24 19.06L14.24 25.36L4.76 25.36C4.81 22.29 5.42 19.31 6.53 16.59C8.46 17.55 11.14 18.35 14.24 19.06ZM6.84 15.83C8.26 12.55 10.38 9.63 13.02 7.31C15.7 8.87 18.8 10.03 21.99 10.74L21.99 19.46C15.5 18.71 9.93 17.24 6.84 15.83ZM14.24 26.22L14.24 32.58C11.14 33.23 8.41 34.09 6.48 35C5.42 32.27 4.81 29.35 4.76 26.22L14.24 26.22ZM22.04 32.17L22.04 40.9C18.8 41.61 15.76 42.82 13.07 44.33C10.43 41.96 8.31 39.08 6.89 35.8C9.93 34.39 15.5 32.88 22.04 32.17ZM20.57 2.62L21.84 2.16C24.22 1.36 26.75 0.9 29.39 0.85L29.39 4.48C26.25 4.43 23.21 3.78 20.42 2.67C20.47 2.67 20.52 2.62 20.57 2.62ZM16.72 4.58L17.83 3.93C18.34 3.63 18.85 3.42 19.35 3.17C22.39 4.53 25.84 5.29 29.39 5.34L29.39 10.74C23.61 10.69 18.14 9.12 13.73 6.65C14.69 5.9 15.65 5.19 16.72 4.58ZM0.86 50.58L0.86 1.05L15.5 4.28C8.51 8.92 3.9 16.84 3.9 25.82C3.9 34.8 8.51 42.71 15.5 47.3L0.86 50.58Z" fill="#1A3B9F" fill-opacity="1.000000" fill-rule="nonzero"/>
		<path id="Vector" d="M48.29 7.96C58.48 18.1 58.53 34.49 48.44 44.53C38.36 54.57 21.89 54.47 11.7 44.38C1.57 34.19 1.46 17.8 11.55 7.76C21.63 -2.27 38.1 -2.17 48.29 7.96ZM12.31 43.77C22.19 53.61 38.15 53.66 47.88 43.93C57.67 34.19 57.56 18.3 47.73 8.52C37.85 -1.32 21.89 -1.37 12.16 8.32C2.38 18.05 2.43 33.94 12.31 43.77Z" fill="#1A3B9F" fill-opacity="1.000000" fill-rule="nonzero"/>
	</g>
</svg>
