<svg width="1144.000000" height="709.000000" viewBox="0 0 1144 709" fill="none" xmlns="http://www.w3.org/2000/svg" xmlns:xlink="http://www.w3.org/1999/xlink">
	<desc>
			Created with Pixso.
	</desc>
	<defs/>
	<path id="Vector" d="M662.03 266.24L582.01 266.24L582.01 10.45L803.8 10.45C1010.59 8.7 1144 139.21 1144 354.97C1144 570.7 1002.23 699.5 803.8 699.5L802.14 699.5L582.01 699.5L582.01 441.97L662.03 441.97L662.08 442.29C662.08 452.88 662.03 456.39 662.03 464.57L662.03 615.98L830.48 615.98L830.48 441.96L1000.6 441.96L1000.6 266.24L830.48 266.24L830.48 92.22L662.03 92.22L662.03 245.34L662.03 266.24ZM582.01 699.5L576.99 699.5L576.99 605.51C518.64 669.89 433.58 708.19 340.19 708.19C151.77 708.19 0 549.87 0 354.99C0 158.34 151.77 0 340.19 0C433.58 0 518.64 40.02 576.99 102.66L576.99 10.46L582.01 10.46L582.01 266.25L576.99 266.25L501.94 266.25C473.63 200.11 411.92 154.87 341.87 154.87C245.13 154.87 165.1 243.61 165.1 354.99C165.1 464.57 245.12 555.08 341.87 555.08C411.92 555.08 473.63 508.12 501.94 441.98L576.99 441.98L582.01 441.98L582.01 699.5Z" fill="#EAEFFD" fill-opacity="1.000000" fill-rule="evenodd"/>
</svg>
