<svg width="22" height="26" viewBox="0 0 22 26" fill="none" xmlns="http://www.w3.org/2000/svg">
<path fill-rule="evenodd" clip-rule="evenodd" d="M10.099 5.49716C9.57495 4.97316 9.57495 4.12006 10.099 3.59607C10.6232 3.07202 11.4761 3.07202 12.0001 3.59607C12.5243 4.12006 12.5243 4.97316 12.0001 5.49716C11.476 6.02154 10.6232 6.02154 10.099 5.49716ZM12.5265 6.02344C13.3408 5.20943 13.3408 3.88385 12.5264 3.06984C11.7122 2.25548 10.3871 2.25548 9.57282 3.06984C8.75841 3.88385 8.75841 5.20943 9.57282 6.02344C10.3877 6.83852 11.7124 6.83802 12.5265 6.02344ZM17.0442 13.4915C17.0442 13.1026 17.3609 12.7863 17.75 12.7863C18.1391 12.7863 18.4558 13.1026 18.4558 13.4915C18.4558 13.8814 18.1391 14.1977 17.75 14.1977C17.3608 14.1977 17.0442 13.8815 17.0442 13.4915ZM14.2953 10.5056C14.217 11.5613 14.2508 13.1889 13.913 14.0354C13.5389 14.9732 12.8392 15.0913 12.5965 16.506C12.4357 17.4433 12.676 18.1197 12.8881 18.7163C13.1722 19.5156 13.4175 20.2061 12.8296 21.5407L11.4241 24.2308C11.2108 24.6397 10.7891 24.6396 10.5758 24.2308L9.17029 21.5407C8.58235 20.2061 8.8278 19.5156 9.11189 18.7163C9.32396 18.1197 9.56425 17.4433 9.40348 16.506C9.16083 15.0918 8.46122 14.9734 8.08692 14.0354C7.69083 13.0428 7.81325 10.9957 7.62279 9.76676C7.56117 9.36798 7.4889 8.97091 7.40607 8.57598C8.21062 8.94664 9.04637 9.17843 9.92965 9.27895V11.2633H9.0971C8.7545 11.2633 8.47578 11.5421 8.47578 11.8846V12.8818C8.47578 13.2243 8.7545 13.5031 9.0971 13.5031H9.92965V14.336C9.92965 14.6782 10.2085 14.957 10.5511 14.957H11.5481C11.8907 14.957 12.1694 14.6782 12.1694 14.336V13.5031H13.002C13.3447 13.5031 13.6234 13.2243 13.6234 12.8818V11.8846C13.6234 11.5421 13.3447 11.2633 13.002 11.2633H12.1694V9.26713C13.0156 9.16118 13.818 8.93264 14.5921 8.57699C14.4338 9.31994 14.3362 9.95531 14.2953 10.5056ZM8.86935 6.72669C9.28396 7.14235 9.8089 7.43061 10.3821 7.5574C10.4649 7.57551 10.539 7.62139 10.5921 7.68742C10.6452 7.75345 10.6742 7.83565 10.6741 7.92039V11.6355C10.674 11.7342 10.6348 11.8288 10.565 11.8986C10.4952 11.9683 10.4006 12.0075 10.3019 12.0075H9.22013V12.7588H10.3019C10.4006 12.7588 10.4953 12.7981 10.5651 12.8679C10.6349 12.9377 10.6741 13.0324 10.6741 13.1311V14.2127H11.4252V13.1311C11.4252 13.0324 11.4644 12.9377 11.5342 12.8679C11.604 12.7981 11.6987 12.7588 11.7974 12.7588H12.8792V12.0075H11.7974C11.6987 12.0075 11.6041 11.9683 11.5343 11.8985C11.4646 11.8288 11.4253 11.7342 11.4252 11.6355V7.92039C11.4252 7.83565 11.4541 7.75345 11.5073 7.68742C11.5604 7.62139 11.6345 7.57551 11.7172 7.5574C12.2905 7.43063 12.8154 7.14237 13.23 6.72669C14.4322 5.52499 14.4322 3.56818 13.23 2.36653C12.0249 1.16152 10.0745 1.16119 8.86941 2.36653C7.66485 3.57126 7.66401 5.52213 8.86935 6.72669ZM3.54425 13.4915C3.54425 13.1026 3.86088 12.7863 4.25002 12.7863C4.63917 12.7863 4.95579 13.1026 4.95579 13.4915C4.95579 13.8814 4.63922 14.1977 4.25002 14.1977C3.86088 14.1977 3.54425 13.8815 3.54425 13.4915ZM21.9429 10.7492C21.9429 8.43704 20.062 6.5564 17.75 6.5564C16.9202 6.5564 16.1179 6.79809 15.4299 7.25645C14.3826 7.95365 13.3367 8.35859 12.1695 8.51673V8.20722C12.7688 8.02426 13.3138 7.69653 13.7563 7.25298C15.2487 5.76097 15.2487 3.33264 13.7563 1.8403C12.2603 0.344092 9.83922 0.343756 8.34323 1.8403C7.62038 2.56309 7.222 3.52439 7.222 4.54684C7.222 6.23865 8.32906 7.7189 9.92977 8.20728V8.52995C8.72325 8.38143 7.64597 7.97264 6.57027 7.25656C5.88214 6.79815 5.07989 6.55651 4.25008 6.55651C1.93806 6.55651 0.0571899 8.43716 0.0571899 10.7493C0.0571899 13.0673 1.94747 14.9424 4.25008 14.9424C5.04959 14.9424 5.70009 14.2916 5.70009 13.4917C5.70009 12.6927 5.04965 12.0419 4.25008 12.0419C3.27965 12.0419 2.58565 12.9793 2.85999 13.9043C1.64899 13.3687 0.80143 12.1562 0.80143 10.7493C0.80143 8.84752 2.34843 7.30075 4.25008 7.30075C4.93261 7.30075 5.59229 7.49983 6.15789 7.87598C6.28356 7.95924 6.41112 8.0396 6.54048 8.117C6.68339 8.7185 6.79466 9.28315 6.88734 9.88112C7.08782 11.1735 6.92755 13.1384 7.39565 14.3114C7.84147 15.4286 8.46324 15.4267 8.66993 16.6315C8.79789 17.3777 8.60985 17.9068 8.41066 18.467C8.11525 19.2984 7.78054 20.2401 8.49465 21.8528C8.4979 21.8601 8.50143 21.8672 8.50502 21.8739L9.9161 24.5753C10.4082 25.5174 11.5918 25.5174 12.0839 24.5753L13.495 21.8739C13.4987 21.8672 13.5021 21.8601 13.5053 21.8528C14.2195 20.2401 13.8847 19.2984 13.5895 18.467C13.3903 17.9069 13.2021 17.3777 13.3301 16.6315C13.537 15.4261 14.1583 15.4294 14.6043 14.3114C15.0022 13.3141 14.9503 11.7351 15.0376 10.5607C15.0868 9.90032 15.2249 9.09941 15.4594 8.11762C15.5876 8.04017 15.7154 7.96076 15.8422 7.87592C16.4078 7.49977 17.0674 7.30069 17.75 7.30069C19.6515 7.30069 21.1986 8.84747 21.1986 10.7492C21.1986 12.1564 20.351 13.3687 19.14 13.9042C19.4147 12.9809 18.7213 12.0418 17.75 12.0418C16.9505 12.0418 16.3 12.6926 16.3 13.4916C16.3 14.2916 16.9505 14.9423 17.75 14.9423C20.0526 14.9423 21.9429 13.0672 21.9429 10.7492Z" fill="white"/>
</svg>
