<svg width="48.000000" height="48.000000" viewBox="0 0 48 48" fill="none" xmlns="http://www.w3.org/2000/svg" xmlns:xlink="http://www.w3.org/1999/xlink">
	<desc>
			Created with Pixso.
	</desc>
	<defs>
		<clipPath id="clip195_8922">
			<rect id="Frame" width="36.000000" height="36.000000" transform="translate(6.000000 6.000000)" fill="white" fill-opacity="0"/>
		</clipPath>
	</defs>
	<circle id="Ellipse 191" cx="24.000000" cy="24.000000" r="24.000000" fill="#FF6174" fill-opacity="1.000000"/>
	<rect id="Frame" width="36.000000" height="36.000000" transform="translate(6.000000 6.000000)" fill="#FFFFFF" fill-opacity="0"/>
	<g clip-path="url(#clip195_8922)">
		<path id="Vector" d="M22.84 14.35C22.16 13.67 22.16 12.58 22.84 11.9C23.51 11.23 24.61 11.23 25.28 11.9C25.95 12.58 25.95 13.67 25.28 14.35C24.61 15.02 23.51 15.02 22.84 14.35ZM25.96 15.03C27 13.98 27 12.27 25.96 11.23C24.91 10.18 23.21 10.18 22.16 11.23C21.11 12.27 21.11 13.98 22.16 15.03C23.21 16.07 24.91 16.07 25.96 15.03ZM31.77 24.63C31.77 24.13 32.17 23.72 32.67 23.72C33.17 23.72 33.58 24.13 33.58 24.63C33.58 25.13 33.17 25.54 32.67 25.54C32.17 25.54 31.77 25.13 31.77 24.63ZM28.23 20.79C28.13 22.15 28.17 24.24 27.74 25.33C27.26 26.53 26.36 26.68 26.05 28.5C25.84 29.71 26.15 30.58 26.42 31.34C26.79 32.37 27.1 33.26 26.35 34.98L24.54 38.43C24.27 38.96 23.72 38.96 23.45 38.43L21.64 34.98C20.89 33.26 21.2 32.37 21.57 31.34C21.84 30.58 22.15 29.71 21.94 28.5C21.63 26.68 20.73 26.53 20.25 25.33C19.74 24.05 19.9 21.42 19.65 19.84C19.57 19.33 19.48 18.81 19.37 18.31C20.41 18.78 21.48 19.08 22.62 19.21L22.62 21.76L21.55 21.76C21.11 21.76 20.75 22.12 20.75 22.56L20.75 23.84C20.75 24.28 21.11 24.64 21.55 24.64L22.62 24.64L22.62 25.71C22.62 26.15 22.98 26.51 23.42 26.51L24.7 26.51C25.14 26.51 25.5 26.15 25.5 25.71L25.5 24.64L26.57 24.64C27.01 24.64 27.37 24.28 27.37 23.84L27.37 22.56C27.37 22.12 27.01 21.76 26.57 21.76L25.5 21.76L25.5 19.2C26.59 19.06 27.62 18.77 28.61 18.31C28.41 19.26 28.28 20.08 28.23 20.79ZM21.26 15.93C21.79 16.46 22.46 16.83 23.2 17C23.31 17.02 23.4 17.08 23.47 17.16C23.54 17.25 23.58 17.36 23.58 17.46L23.58 22.24C23.58 22.37 23.53 22.49 23.44 22.58C23.35 22.67 23.22 22.72 23.1 22.72L21.71 22.72L21.71 23.68L23.1 23.68C23.22 23.69 23.35 23.74 23.44 23.83C23.53 23.91 23.58 24.04 23.58 24.16L23.58 25.55L24.54 25.55L24.54 24.16C24.54 24.04 24.59 23.92 24.68 23.83C24.77 23.74 24.89 23.69 25.02 23.68L26.41 23.68L26.41 22.72L25.02 22.72C24.89 22.72 24.77 22.67 24.68 22.58C24.59 22.49 24.54 22.37 24.54 22.24L24.54 17.46C24.54 17.36 24.58 17.25 24.65 17.16C24.72 17.08 24.81 17.02 24.92 17C25.65 16.83 26.33 16.46 26.86 15.93C28.41 14.38 28.41 11.87 26.86 10.32C25.31 8.77 22.81 8.77 21.26 10.32C19.71 11.87 19.71 14.38 21.26 15.93ZM14.41 24.63C14.41 24.13 14.82 23.72 15.32 23.72C15.82 23.72 16.22 24.13 16.22 24.63C16.22 25.13 15.82 25.54 15.32 25.54C14.82 25.54 14.41 25.13 14.41 24.63ZM38.06 21.1C38.06 18.13 35.65 15.71 32.67 15.71C31.61 15.71 30.58 16.02 29.69 16.61C28.34 17.51 27 18.03 25.5 18.23L25.5 17.83C26.27 17.6 26.97 17.18 27.54 16.61C29.46 14.69 29.46 11.57 27.54 9.65C25.62 7.72 22.5 7.72 20.58 9.65C19.65 10.58 19.14 11.81 19.14 13.13C19.14 15.3 20.56 17.21 22.62 17.83L22.62 18.25C21.07 18.06 19.68 17.53 18.3 16.61C17.41 16.02 16.38 15.71 15.32 15.71C12.34 15.71 9.93 18.13 9.93 21.1C9.93 24.08 12.36 26.49 15.32 26.49C16.34 26.49 17.18 25.66 17.18 24.63C17.18 23.6 16.34 22.76 15.32 22.76C14.07 22.76 13.18 23.97 13.53 25.16C11.97 24.47 10.88 22.91 10.88 21.1C10.88 18.66 12.87 16.67 15.32 16.67C16.19 16.67 17.04 16.92 17.77 17.41C17.93 17.51 18.1 17.62 18.26 17.72C18.45 18.49 18.59 19.22 18.71 19.99C18.96 21.65 18.76 24.17 19.36 25.68C19.93 27.12 20.73 27.12 21 28.66C21.16 29.62 20.92 30.3 20.67 31.02C20.29 32.09 19.86 33.3 20.77 35.38C20.78 35.39 20.78 35.4 20.79 35.4L22.6 38.88C23.23 40.09 24.76 40.09 25.39 38.88L27.2 35.4C27.21 35.4 27.21 35.39 27.22 35.38C28.13 33.3 27.7 32.09 27.32 31.02C27.07 30.3 26.83 29.62 26.99 28.66C27.26 27.11 28.06 27.12 28.63 25.68C29.14 24.4 29.07 22.37 29.19 20.86C29.25 20.01 29.43 18.98 29.73 17.72C29.89 17.62 30.06 17.52 30.22 17.41C30.95 16.92 31.8 16.67 32.67 16.67C35.12 16.67 37.11 18.66 37.11 21.1C37.11 22.91 36.02 24.47 34.46 25.16C34.81 23.97 33.92 22.76 32.67 22.76C31.65 22.76 30.81 23.6 30.81 24.63C30.81 25.66 31.65 26.49 32.67 26.49C35.63 26.49 38.06 24.08 38.06 21.1Z" fill="#FFFFFF" fill-opacity="1.000000" fill-rule="evenodd"/>
	</g>
</svg>
