<svg width="48.000000" height="48.000000" viewBox="0 0 48 48" fill="none" xmlns="http://www.w3.org/2000/svg" xmlns:xlink="http://www.w3.org/1999/xlink">
	<desc>
			Created with Pixso.
	</desc>
	<defs/>
	<circle id="Ellipse 191" cx="24.000000" cy="24.000000" r="24.000000" fill="#FF6174" fill-opacity="1.000000"/>
	<path id="Vector" d="M30.55 20.56C28.43 17.44 24.85 15.39 20.8 15.39C14.28 15.39 9 20.68 9 27.19C9 30.13 10.07 32.81 11.84 34.87M13.12 36.16C15.18 37.93 17.86 39 20.8 39C27.31 39 32.6 33.71 32.6 27.19C32.6 26.19 32.47 25.21 32.23 24.28M35.08 14.8C35.53 14.22 35.37 13.66 35.23 13.38C35.09 13.09 34.75 12.62 34.02 12.62C33.28 12.62 32.94 13.09 32.8 13.38C32.67 13.66 32.5 14.22 32.96 " stroke="#FFFFFF" stroke-opacity="1.000000" stroke-width="1.000000" stroke-linejoin="round"/>
	<path id="Vector" d="M30.01 11.01C30.89 9.82 32.29 8.99 34.01 8.99C38.16 8.99 40.49 13.78 37.92 17.04L30.65 26.29C30.12 26.97 29.03 26.59 29.03 25.73L29.03 23.11C29.03 22.71 29.17 22.31 29.42 22L35.62 14.11C36.67 12.77 35.72 10.81 34.01 10.81C32.31 10.81 31.36 12.77 32.41 14.11L34.01 " stroke="#FFFFFF" stroke-opacity="1.000000" stroke-width="1.000000" stroke-linejoin="round" stroke-linecap="round"/>
	<path id="Vector" d="M29.22 12.64C28.82 14.07 29.04 15.68 30.1 17.04L31.71 19.08M36.31 19.08L38.6 22C38.85 22.31 38.99 22.71 38.99 23.11L38.99 25.73C38.99 26.59 37.9 26.97 37.37 26.29L34.01 22.01M21.65 20.94C21.1 21.17 20.48 21.17 19.93 20.94C18.78 20.46 17.45 21.01 16.98 22.16C16.75 22.71 16.31 23.15 15.76 23.38C14.6 23.86 14.06 25.18 14.53 26.33C14.76 26.88 14.76 27.51 14.53 28.06C14.06 29.21 14.6 30.53 15.76 31.01C16.31 31.24 16.75 31.68 16.98 32.23C17.45 33.38 18.78 33.93 19.93 33.45C20.48 33.22 21.1 33.22 21.65 33.45C22.81 33.93 24.13 33.38 24.6 32.23C24.83 31.68 25.27 31.24 25.83 31.01C26.98 30.53 27.52 29.21 27.05 28.06C26.82 27.51 26.82 26.88 27.05 26.33C27.52 25.18 26.98 23.86 25.83 23.38C25.55 23.27 25.3 23.1 25.09 22.89C24.88 22.68 24.72 22.43 24.6 22.16C24.13 21.01 22.81 20.46 21.65 20.94Z" stroke="#FFFFFF" stroke-opacity="1.000000" stroke-width="1.000000" stroke-linejoin="round"/>
	<path id="Vector" d="M22.11 25.27L22.08 25.31C21.74 25.65 21.28 25.84 20.79 25.84C20.31 25.84 19.85 25.65 19.51 25.31L19.48 25.27C19.13 24.92 18.56 24.92 18.2 25.27C17.85 25.63 17.85 26.2 18.2 26.55C18.56 26.91 18.56 27.48 18.2 27.84C17.85 28.19 17.85 28.76 18.2 29.12C18.56 29.47 19.13 29.47 19.48 29.12L19.51 29.08C19.85 28.74 20.31 28.55 20.79 28.55C21.28 28.55 21.74 28.74 22.08 29.08L22.11 29.12C22.46 29.47 23.03 29.47 23.39 29.12C23.74 28.76 23.74 28.19 23.39 27.84C23.03 27.48 23.03 26.91 23.39 26.55C23.74 26.2 23.74 25.63 23.39 25.27C23.03 24.92 22.46 24.92 22.11 25.27Z" stroke="#FFFFFF" stroke-opacity="1.000000" stroke-width="1.000000" stroke-linejoin="round"/>
</svg>
