<svg width="21.000000" height="19.000000" viewBox="0 0 21 19" fill="none" xmlns="http://www.w3.org/2000/svg" xmlns:xlink="http://www.w3.org/1999/xlink">
	<desc>
			Created with Pixso.
	</desc>
	<defs/>
	<path id="Vector" d="M15.91 11.32C15.65 11.57 15.54 11.93 15.59 12.29L16.48 17.2C16.56 17.62 16.38 18.04 16.03 18.29C15.69 18.54 15.24 18.57 14.86 18.37L10.43 16.06C10.28 15.97 10.11 15.93 9.93 15.92L9.66 15.92C9.57 15.94 9.48 15.97 9.39 16.01L4.96 18.34C4.74 18.45 4.5 18.48 4.25 18.45C3.66 18.33 3.27 17.77 3.36 17.17L4.25 12.25C4.31 11.89 4.19 11.53 3.93 11.28L0.32 7.78C0.02 7.48 -0.08 7.04 0.05 6.64C0.19 6.25 0.53 5.96 0.94 5.89L5.91 5.17C6.29 5.13 6.62 4.9 6.79 4.57L8.98 0.08C9.04 -0.03 9.1 -0.12 9.18 -0.19L9.27 -0.27C9.32 -0.32 9.37 -0.36 9.43 -0.39L9.54 -0.43L9.71 -0.5L10.13 -0.5C10.51 -0.47 10.84 -0.24 11.01 0.1L13.23 4.57C13.39 4.89 13.7 5.12 14.06 5.17L19.03 5.89C19.45 5.95 19.8 6.25 19.94 6.64C20.07 7.05 19.96 7.49 19.65 7.78L15.91 11.32Z" fill="#FFA800" fill-opacity="1.000000" fill-rule="nonzero"/>
</svg>
